<?xml version="1.0" encoding="UTF-8"?>
<svg xmlns="http://www.w3.org/2000/svg" xmlns:xlink="http://www.w3.org/1999/xlink" width="5000" height="3000" viewBox="0 0 5000 3000">
<defs>
<clipPath id="clip-0">
<path clip-rule="nonzero" d="M 1865 818 L 2631 818 L 2631 1706 L 1865 1706 Z M 1865 818 "/>
</clipPath>
<clipPath id="clip-1">
<path clip-rule="nonzero" d="M 1944.308594 818.269531 L 2597.921875 818.269531 L 2630.96875 1196.851562 L 2108.109375 1196.851562 L 2265.140625 1705.089844 L 1865.609375 1705.089844 Z M 1944.308594 818.269531 "/>
</clipPath>
<clipPath id="clip-2">
<path clip-rule="nonzero" d="M 1944.308594 818.269531 L 2597.921875 818.269531 L 2630.96875 1196.851562 L 2108.109375 1196.851562 L 2265.140625 1705.089844 L 1865.609375 1705.089844 L 1944.308594 818.269531 "/>
</clipPath>
<linearGradient id="linear-pattern-0" gradientUnits="userSpaceOnUse" x1="-0.0406772" y1="0" x2="1.216439" y2="0" gradientTransform="matrix(409.087, -806.725, -806.725, -409.087, 1936.59, 1699.83)">
<stop offset="0" stop-color="rgb(33.332825%, 7.450867%, 55.685425%)" stop-opacity="1"/>
<stop offset="0.03125" stop-color="rgb(33.332825%, 7.450867%, 55.685425%)" stop-opacity="1"/>
<stop offset="0.0351562" stop-color="rgb(33.551025%, 7.592773%, 55.828857%)" stop-opacity="1"/>
<stop offset="0.0390625" stop-color="rgb(33.769226%, 7.73468%, 55.973816%)" stop-opacity="1"/>
<stop offset="0.0429687" stop-color="rgb(34.022522%, 7.899475%, 56.140137%)" stop-opacity="1"/>
<stop offset="0.046875" stop-color="rgb(34.277344%, 8.065796%, 56.307983%)" stop-opacity="1"/>
<stop offset="0.0507812" stop-color="rgb(34.53064%, 8.230591%, 56.47583%)" stop-opacity="1"/>
<stop offset="0.0546875" stop-color="rgb(34.785461%, 8.396912%, 56.643677%)" stop-opacity="1"/>
<stop offset="0.0585937" stop-color="rgb(35.038757%, 8.561707%, 56.809998%)" stop-opacity="1"/>
<stop offset="0.0625" stop-color="rgb(35.293579%, 8.728027%, 56.977844%)" stop-opacity="1"/>
<stop offset="0.0664062" stop-color="rgb(35.546875%, 8.892822%, 57.145691%)" stop-opacity="1"/>
<stop offset="0.0703125" stop-color="rgb(35.801697%, 9.059143%, 57.313538%)" stop-opacity="1"/>
<stop offset="0.0742187" stop-color="rgb(36.056519%, 9.223938%, 57.481384%)" stop-opacity="1"/>
<stop offset="0.078125" stop-color="rgb(36.31134%, 9.390259%, 57.649231%)" stop-opacity="1"/>
<stop offset="0.0820312" stop-color="rgb(36.564636%, 9.555054%, 57.815552%)" stop-opacity="1"/>
<stop offset="0.0859375" stop-color="rgb(36.819458%, 9.721375%, 57.983398%)" stop-opacity="1"/>
<stop offset="0.0898437" stop-color="rgb(37.072754%, 9.886169%, 58.151245%)" stop-opacity="1"/>
<stop offset="0.09375" stop-color="rgb(37.327576%, 10.05249%, 58.319092%)" stop-opacity="1"/>
<stop offset="0.0976562" stop-color="rgb(37.580872%, 10.217285%, 58.485413%)" stop-opacity="1"/>
<stop offset="0.101562" stop-color="rgb(37.835693%, 10.383606%, 58.653259%)" stop-opacity="1"/>
<stop offset="0.105469" stop-color="rgb(38.088989%, 10.549927%, 58.821106%)" stop-opacity="1"/>
<stop offset="0.109375" stop-color="rgb(38.343811%, 10.716248%, 58.988953%)" stop-opacity="1"/>
<stop offset="0.113281" stop-color="rgb(38.598633%, 10.881042%, 59.155273%)" stop-opacity="1"/>
<stop offset="0.117187" stop-color="rgb(38.853455%, 11.047363%, 59.32312%)" stop-opacity="1"/>
<stop offset="0.121094" stop-color="rgb(39.10675%, 11.212158%, 59.490967%)" stop-opacity="1"/>
<stop offset="0.125" stop-color="rgb(39.361572%, 11.378479%, 59.658813%)" stop-opacity="1"/>
<stop offset="0.128906" stop-color="rgb(39.614868%, 11.543274%, 59.82666%)" stop-opacity="1"/>
<stop offset="0.132812" stop-color="rgb(39.86969%, 11.709595%, 59.994507%)" stop-opacity="1"/>
<stop offset="0.136719" stop-color="rgb(40.122986%, 11.87439%, 60.160828%)" stop-opacity="1"/>
<stop offset="0.140625" stop-color="rgb(40.377808%, 12.04071%, 60.328674%)" stop-opacity="1"/>
<stop offset="0.144531" stop-color="rgb(40.631104%, 12.205505%, 60.496521%)" stop-opacity="1"/>
<stop offset="0.148437" stop-color="rgb(40.885925%, 12.371826%, 60.664368%)" stop-opacity="1"/>
<stop offset="0.152344" stop-color="rgb(41.139221%, 12.536621%, 60.830688%)" stop-opacity="1"/>
<stop offset="0.15625" stop-color="rgb(41.394043%, 12.702942%, 60.998535%)" stop-opacity="1"/>
<stop offset="0.160156" stop-color="rgb(41.648865%, 12.867737%, 61.166382%)" stop-opacity="1"/>
<stop offset="0.164062" stop-color="rgb(41.903687%, 13.034058%, 61.334229%)" stop-opacity="1"/>
<stop offset="0.167969" stop-color="rgb(42.156982%, 13.198853%, 61.502075%)" stop-opacity="1"/>
<stop offset="0.171875" stop-color="rgb(42.411804%, 13.365173%, 61.669922%)" stop-opacity="1"/>
<stop offset="0.175781" stop-color="rgb(42.6651%, 13.529968%, 61.836243%)" stop-opacity="1"/>
<stop offset="0.179687" stop-color="rgb(42.919922%, 13.696289%, 62.004089%)" stop-opacity="1"/>
<stop offset="0.183594" stop-color="rgb(43.173218%, 13.861084%, 62.171936%)" stop-opacity="1"/>
<stop offset="0.1875" stop-color="rgb(43.42804%, 14.027405%, 62.339783%)" stop-opacity="1"/>
<stop offset="0.191406" stop-color="rgb(43.681335%, 14.1922%, 62.506104%)" stop-opacity="1"/>
<stop offset="0.195312" stop-color="rgb(43.936157%, 14.358521%, 62.67395%)" stop-opacity="1"/>
<stop offset="0.199219" stop-color="rgb(44.190979%, 14.523315%, 62.841797%)" stop-opacity="1"/>
<stop offset="0.203125" stop-color="rgb(44.445801%, 14.689636%, 63.009644%)" stop-opacity="1"/>
<stop offset="0.207031" stop-color="rgb(44.699097%, 14.854431%, 63.17749%)" stop-opacity="1"/>
<stop offset="0.210937" stop-color="rgb(44.953918%, 15.020752%, 63.345337%)" stop-opacity="1"/>
<stop offset="0.214844" stop-color="rgb(45.207214%, 15.187073%, 63.511658%)" stop-opacity="1"/>
<stop offset="0.21875" stop-color="rgb(45.462036%, 15.353394%, 63.679504%)" stop-opacity="1"/>
<stop offset="0.222656" stop-color="rgb(45.715332%, 15.518188%, 63.847351%)" stop-opacity="1"/>
<stop offset="0.226562" stop-color="rgb(45.970154%, 15.684509%, 64.015198%)" stop-opacity="1"/>
<stop offset="0.230469" stop-color="rgb(46.22345%, 15.849304%, 64.181519%)" stop-opacity="1"/>
<stop offset="0.234375" stop-color="rgb(46.478271%, 16.015625%, 64.349365%)" stop-opacity="1"/>
<stop offset="0.238281" stop-color="rgb(46.731567%, 16.18042%, 64.517212%)" stop-opacity="1"/>
<stop offset="0.242187" stop-color="rgb(46.986389%, 16.346741%, 64.685059%)" stop-opacity="1"/>
<stop offset="0.246094" stop-color="rgb(47.241211%, 16.511536%, 64.852905%)" stop-opacity="1"/>
<stop offset="0.25" stop-color="rgb(47.496033%, 16.677856%, 65.020752%)" stop-opacity="1"/>
<stop offset="0.253906" stop-color="rgb(47.749329%, 16.842651%, 65.187073%)" stop-opacity="1"/>
<stop offset="0.257812" stop-color="rgb(48.00415%, 17.008972%, 65.354919%)" stop-opacity="1"/>
<stop offset="0.261719" stop-color="rgb(48.257446%, 17.173767%, 65.522766%)" stop-opacity="1"/>
<stop offset="0.265625" stop-color="rgb(48.512268%, 17.340088%, 65.690613%)" stop-opacity="1"/>
<stop offset="0.269531" stop-color="rgb(48.765564%, 17.504883%, 65.856934%)" stop-opacity="1"/>
<stop offset="0.273437" stop-color="rgb(49.020386%, 17.671204%, 66.02478%)" stop-opacity="1"/>
<stop offset="0.277344" stop-color="rgb(49.273682%, 17.835999%, 66.192627%)" stop-opacity="1"/>
<stop offset="0.28125" stop-color="rgb(49.528503%, 18.002319%, 66.360474%)" stop-opacity="1"/>
<stop offset="0.285156" stop-color="rgb(49.783325%, 18.167114%, 66.52832%)" stop-opacity="1"/>
<stop offset="0.289062" stop-color="rgb(50.038147%, 18.333435%, 66.696167%)" stop-opacity="1"/>
<stop offset="0.292969" stop-color="rgb(50.291443%, 18.49823%, 66.862488%)" stop-opacity="1"/>
<stop offset="0.296875" stop-color="rgb(50.546265%, 18.664551%, 67.030334%)" stop-opacity="1"/>
<stop offset="0.300781" stop-color="rgb(50.799561%, 18.829346%, 67.198181%)" stop-opacity="1"/>
<stop offset="0.304687" stop-color="rgb(51.054382%, 18.995667%, 67.366028%)" stop-opacity="1"/>
<stop offset="0.308594" stop-color="rgb(51.307678%, 19.160461%, 67.532349%)" stop-opacity="1"/>
<stop offset="0.3125" stop-color="rgb(51.5625%, 19.326782%, 67.700195%)" stop-opacity="1"/>
<stop offset="0.316406" stop-color="rgb(51.815796%, 19.491577%, 67.868042%)" stop-opacity="1"/>
<stop offset="0.320312" stop-color="rgb(52.070618%, 19.657898%, 68.035889%)" stop-opacity="1"/>
<stop offset="0.324219" stop-color="rgb(52.323914%, 19.824219%, 68.203735%)" stop-opacity="1"/>
<stop offset="0.328125" stop-color="rgb(52.578735%, 19.99054%, 68.371582%)" stop-opacity="1"/>
<stop offset="0.332031" stop-color="rgb(52.833557%, 20.155334%, 68.537903%)" stop-opacity="1"/>
<stop offset="0.335937" stop-color="rgb(53.088379%, 20.321655%, 68.70575%)" stop-opacity="1"/>
<stop offset="0.339844" stop-color="rgb(53.341675%, 20.48645%, 68.873596%)" stop-opacity="1"/>
<stop offset="0.34375" stop-color="rgb(53.596497%, 20.652771%, 69.041443%)" stop-opacity="1"/>
<stop offset="0.347656" stop-color="rgb(53.849792%, 20.817566%, 69.207764%)" stop-opacity="1"/>
<stop offset="0.351562" stop-color="rgb(54.104614%, 20.983887%, 69.37561%)" stop-opacity="1"/>
<stop offset="0.355469" stop-color="rgb(54.35791%, 21.148682%, 69.543457%)" stop-opacity="1"/>
<stop offset="0.359375" stop-color="rgb(54.612732%, 21.315002%, 69.711304%)" stop-opacity="1"/>
<stop offset="0.363281" stop-color="rgb(54.866028%, 21.479797%, 69.87915%)" stop-opacity="1"/>
<stop offset="0.367187" stop-color="rgb(55.12085%, 21.646118%, 70.046997%)" stop-opacity="1"/>
<stop offset="0.371094" stop-color="rgb(55.374146%, 21.810913%, 70.213318%)" stop-opacity="1"/>
<stop offset="0.375" stop-color="rgb(55.628967%, 21.977234%, 70.381165%)" stop-opacity="1"/>
<stop offset="0.378906" stop-color="rgb(55.883789%, 22.142029%, 70.549011%)" stop-opacity="1"/>
<stop offset="0.382812" stop-color="rgb(56.138611%, 22.30835%, 70.716858%)" stop-opacity="1"/>
<stop offset="0.386719" stop-color="rgb(56.391907%, 22.473145%, 70.883179%)" stop-opacity="1"/>
<stop offset="0.390625" stop-color="rgb(56.646729%, 22.639465%, 71.051025%)" stop-opacity="1"/>
<stop offset="0.394531" stop-color="rgb(56.900024%, 22.80426%, 71.218872%)" stop-opacity="1"/>
<stop offset="0.398437" stop-color="rgb(57.154846%, 22.970581%, 71.386719%)" stop-opacity="1"/>
<stop offset="0.402344" stop-color="rgb(57.408142%, 23.135376%, 71.554565%)" stop-opacity="1"/>
<stop offset="0.40625" stop-color="rgb(57.662964%, 23.301697%, 71.722412%)" stop-opacity="1"/>
<stop offset="0.410156" stop-color="rgb(57.91626%, 23.466492%, 71.888733%)" stop-opacity="1"/>
<stop offset="0.414062" stop-color="rgb(58.171082%, 23.632812%, 72.05658%)" stop-opacity="1"/>
<stop offset="0.417969" stop-color="rgb(58.425903%, 23.797607%, 72.224426%)" stop-opacity="1"/>
<stop offset="0.421875" stop-color="rgb(58.680725%, 23.963928%, 72.392273%)" stop-opacity="1"/>
<stop offset="0.425781" stop-color="rgb(58.934021%, 24.128723%, 72.558594%)" stop-opacity="1"/>
<stop offset="0.429687" stop-color="rgb(59.188843%, 24.295044%, 72.72644%)" stop-opacity="1"/>
<stop offset="0.433594" stop-color="rgb(59.442139%, 24.461365%, 72.894287%)" stop-opacity="1"/>
<stop offset="0.4375" stop-color="rgb(59.69696%, 24.627686%, 73.062134%)" stop-opacity="1"/>
<stop offset="0.441406" stop-color="rgb(59.950256%, 24.79248%, 73.22998%)" stop-opacity="1"/>
<stop offset="0.445312" stop-color="rgb(60.205078%, 24.958801%, 73.397827%)" stop-opacity="1"/>
<stop offset="0.449219" stop-color="rgb(60.458374%, 25.123596%, 73.564148%)" stop-opacity="1"/>
<stop offset="0.453125" stop-color="rgb(60.713196%, 25.289917%, 73.731995%)" stop-opacity="1"/>
<stop offset="0.457031" stop-color="rgb(60.966492%, 25.454712%, 73.899841%)" stop-opacity="1"/>
<stop offset="0.460937" stop-color="rgb(61.221313%, 25.621033%, 74.067688%)" stop-opacity="1"/>
<stop offset="0.464844" stop-color="rgb(61.476135%, 25.785828%, 74.234009%)" stop-opacity="1"/>
<stop offset="0.46875" stop-color="rgb(61.730957%, 25.952148%, 74.401855%)" stop-opacity="1"/>
<stop offset="0.472656" stop-color="rgb(61.984253%, 26.116943%, 74.569702%)" stop-opacity="1"/>
<stop offset="0.476562" stop-color="rgb(62.239075%, 26.283264%, 74.737549%)" stop-opacity="1"/>
<stop offset="0.480469" stop-color="rgb(62.492371%, 26.448059%, 74.90387%)" stop-opacity="1"/>
<stop offset="0.484375" stop-color="rgb(62.747192%, 26.61438%, 75.071716%)" stop-opacity="1"/>
<stop offset="0.488281" stop-color="rgb(63.000488%, 26.779175%, 75.239563%)" stop-opacity="1"/>
<stop offset="0.492187" stop-color="rgb(63.25531%, 26.945496%, 75.40741%)" stop-opacity="1"/>
<stop offset="0.496094" stop-color="rgb(63.508606%, 27.110291%, 75.575256%)" stop-opacity="1"/>
<stop offset="0.5" stop-color="rgb(63.763428%, 27.276611%, 75.743103%)" stop-opacity="1"/>
<stop offset="0.503906" stop-color="rgb(64.01825%, 27.441406%, 75.909424%)" stop-opacity="1"/>
<stop offset="0.507812" stop-color="rgb(64.273071%, 27.607727%, 76.077271%)" stop-opacity="1"/>
<stop offset="0.511719" stop-color="rgb(64.526367%, 27.772522%, 76.245117%)" stop-opacity="1"/>
<stop offset="0.515625" stop-color="rgb(64.781189%, 27.938843%, 76.412964%)" stop-opacity="1"/>
<stop offset="0.519531" stop-color="rgb(65.034485%, 28.103638%, 76.579285%)" stop-opacity="1"/>
<stop offset="0.523437" stop-color="rgb(65.289307%, 28.269958%, 76.747131%)" stop-opacity="1"/>
<stop offset="0.527344" stop-color="rgb(65.542603%, 28.434753%, 76.914978%)" stop-opacity="1"/>
<stop offset="0.53125" stop-color="rgb(65.797424%, 28.601074%, 77.082825%)" stop-opacity="1"/>
<stop offset="0.535156" stop-color="rgb(66.05072%, 28.765869%, 77.250671%)" stop-opacity="1"/>
<stop offset="0.539062" stop-color="rgb(66.305542%, 28.93219%, 77.418518%)" stop-opacity="1"/>
<stop offset="0.542969" stop-color="rgb(66.558838%, 29.098511%, 77.584839%)" stop-opacity="1"/>
<stop offset="0.546875" stop-color="rgb(66.81366%, 29.264832%, 77.752686%)" stop-opacity="1"/>
<stop offset="0.550781" stop-color="rgb(67.068481%, 29.429626%, 77.920532%)" stop-opacity="1"/>
<stop offset="0.554687" stop-color="rgb(67.323303%, 29.595947%, 78.088379%)" stop-opacity="1"/>
<stop offset="0.558594" stop-color="rgb(67.576599%, 29.760742%, 78.2547%)" stop-opacity="1"/>
<stop offset="0.5625" stop-color="rgb(67.831421%, 29.927063%, 78.422546%)" stop-opacity="1"/>
<stop offset="0.566406" stop-color="rgb(68.084717%, 30.091858%, 78.590393%)" stop-opacity="1"/>
<stop offset="0.570312" stop-color="rgb(68.339539%, 30.258179%, 78.75824%)" stop-opacity="1"/>
<stop offset="0.574219" stop-color="rgb(68.592834%, 30.422974%, 78.926086%)" stop-opacity="1"/>
<stop offset="0.578125" stop-color="rgb(68.847656%, 30.589294%, 79.093933%)" stop-opacity="1"/>
<stop offset="0.582031" stop-color="rgb(69.100952%, 30.754089%, 79.260254%)" stop-opacity="1"/>
<stop offset="0.585938" stop-color="rgb(69.355774%, 30.92041%, 79.428101%)" stop-opacity="1"/>
<stop offset="0.589844" stop-color="rgb(69.610596%, 31.085205%, 79.595947%)" stop-opacity="1"/>
<stop offset="0.59375" stop-color="rgb(69.865417%, 31.251526%, 79.763794%)" stop-opacity="1"/>
<stop offset="0.597656" stop-color="rgb(70.118713%, 31.416321%, 79.930115%)" stop-opacity="1"/>
<stop offset="0.601562" stop-color="rgb(70.373535%, 31.582642%, 80.097961%)" stop-opacity="1"/>
<stop offset="0.605469" stop-color="rgb(70.626831%, 31.747437%, 80.265808%)" stop-opacity="1"/>
<stop offset="0.609375" stop-color="rgb(70.881653%, 31.913757%, 80.433655%)" stop-opacity="1"/>
<stop offset="0.613281" stop-color="rgb(71.134949%, 32.078552%, 80.601501%)" stop-opacity="1"/>
<stop offset="0.617187" stop-color="rgb(71.389771%, 32.244873%, 80.769348%)" stop-opacity="1"/>
<stop offset="0.621094" stop-color="rgb(71.643066%, 32.409668%, 80.935669%)" stop-opacity="1"/>
<stop offset="0.625" stop-color="rgb(71.897888%, 32.575989%, 81.103516%)" stop-opacity="1"/>
<stop offset="0.628906" stop-color="rgb(72.151184%, 32.740784%, 81.271362%)" stop-opacity="1"/>
<stop offset="0.632812" stop-color="rgb(72.406006%, 32.907104%, 81.439209%)" stop-opacity="1"/>
<stop offset="0.636719" stop-color="rgb(72.660828%, 33.071899%, 81.60553%)" stop-opacity="1"/>
<stop offset="0.640625" stop-color="rgb(72.915649%, 33.23822%, 81.773376%)" stop-opacity="1"/>
<stop offset="0.644531" stop-color="rgb(73.168945%, 33.403015%, 81.941223%)" stop-opacity="1"/>
<stop offset="0.648437" stop-color="rgb(73.423767%, 33.569336%, 82.10907%)" stop-opacity="1"/>
<stop offset="0.652344" stop-color="rgb(73.677063%, 33.735657%, 82.276917%)" stop-opacity="1"/>
<stop offset="0.65625" stop-color="rgb(73.931885%, 33.901978%, 82.444763%)" stop-opacity="1"/>
<stop offset="0.660156" stop-color="rgb(74.185181%, 34.066772%, 82.611084%)" stop-opacity="1"/>
<stop offset="0.664062" stop-color="rgb(74.440002%, 34.233093%, 82.778931%)" stop-opacity="1"/>
<stop offset="0.667969" stop-color="rgb(74.693298%, 34.397888%, 82.946777%)" stop-opacity="1"/>
<stop offset="0.671875" stop-color="rgb(74.94812%, 34.564209%, 83.114624%)" stop-opacity="1"/>
<stop offset="0.675781" stop-color="rgb(75.202942%, 34.729004%, 83.280945%)" stop-opacity="1"/>
<stop offset="0.679687" stop-color="rgb(75.457764%, 34.895325%, 83.448792%)" stop-opacity="1"/>
<stop offset="0.683594" stop-color="rgb(75.71106%, 35.06012%, 83.616638%)" stop-opacity="1"/>
<stop offset="0.6875" stop-color="rgb(75.965881%, 35.22644%, 83.784485%)" stop-opacity="1"/>
<stop offset="0.691406" stop-color="rgb(76.219177%, 35.391235%, 83.952332%)" stop-opacity="1"/>
<stop offset="0.695312" stop-color="rgb(76.473999%, 35.557556%, 84.120178%)" stop-opacity="1"/>
<stop offset="0.699219" stop-color="rgb(76.727295%, 35.722351%, 84.286499%)" stop-opacity="1"/>
<stop offset="0.703125" stop-color="rgb(76.982117%, 35.888672%, 84.454346%)" stop-opacity="1"/>
<stop offset="0.707031" stop-color="rgb(77.235413%, 36.053467%, 84.622192%)" stop-opacity="1"/>
<stop offset="0.710937" stop-color="rgb(77.490234%, 36.219788%, 84.790039%)" stop-opacity="1"/>
<stop offset="0.714844" stop-color="rgb(77.74353%, 36.384583%, 84.95636%)" stop-opacity="1"/>
<stop offset="0.71875" stop-color="rgb(77.998352%, 36.550903%, 85.124207%)" stop-opacity="1"/>
<stop offset="0.722656" stop-color="rgb(78.253174%, 36.715698%, 85.292053%)" stop-opacity="1"/>
<stop offset="0.726562" stop-color="rgb(78.507996%, 36.882019%, 85.4599%)" stop-opacity="1"/>
<stop offset="0.730469" stop-color="rgb(78.761292%, 37.046814%, 85.627747%)" stop-opacity="1"/>
<stop offset="0.734375" stop-color="rgb(79.016113%, 37.213135%, 85.795593%)" stop-opacity="1"/>
<stop offset="0.738281" stop-color="rgb(79.269409%, 37.37793%, 85.961914%)" stop-opacity="1"/>
<stop offset="0.742187" stop-color="rgb(79.524231%, 37.54425%, 86.129761%)" stop-opacity="1"/>
<stop offset="0.746094" stop-color="rgb(79.777527%, 37.709045%, 86.297607%)" stop-opacity="1"/>
<stop offset="0.75" stop-color="rgb(80.032349%, 37.875366%, 86.465454%)" stop-opacity="1"/>
<stop offset="0.753906" stop-color="rgb(80.285645%, 38.041687%, 86.631775%)" stop-opacity="1"/>
<stop offset="0.757812" stop-color="rgb(80.540466%, 38.208008%, 86.799622%)" stop-opacity="1"/>
<stop offset="0.761719" stop-color="rgb(80.795288%, 38.372803%, 86.967468%)" stop-opacity="1"/>
<stop offset="0.765625" stop-color="rgb(81.05011%, 38.539124%, 87.135315%)" stop-opacity="1"/>
<stop offset="0.769531" stop-color="rgb(81.303406%, 38.703918%, 87.303162%)" stop-opacity="1"/>
<stop offset="0.773437" stop-color="rgb(81.558228%, 38.870239%, 87.471008%)" stop-opacity="1"/>
<stop offset="0.777344" stop-color="rgb(81.811523%, 39.035034%, 87.637329%)" stop-opacity="1"/>
<stop offset="0.78125" stop-color="rgb(82.066345%, 39.201355%, 87.805176%)" stop-opacity="1"/>
<stop offset="0.785156" stop-color="rgb(82.319641%, 39.36615%, 87.973022%)" stop-opacity="1"/>
<stop offset="0.789062" stop-color="rgb(82.574463%, 39.532471%, 88.140869%)" stop-opacity="1"/>
<stop offset="0.792969" stop-color="rgb(82.827759%, 39.697266%, 88.30719%)" stop-opacity="1"/>
<stop offset="0.796875" stop-color="rgb(83.082581%, 39.863586%, 88.475037%)" stop-opacity="1"/>
<stop offset="0.800781" stop-color="rgb(83.335876%, 40.028381%, 88.642883%)" stop-opacity="1"/>
<stop offset="0.804687" stop-color="rgb(83.590698%, 40.194702%, 88.81073%)" stop-opacity="1"/>
<stop offset="0.808594" stop-color="rgb(83.84552%, 40.359497%, 88.978577%)" stop-opacity="1"/>
<stop offset="0.8125" stop-color="rgb(84.100342%, 40.525818%, 89.146423%)" stop-opacity="1"/>
<stop offset="0.816406" stop-color="rgb(84.353638%, 40.690613%, 89.312744%)" stop-opacity="1"/>
<stop offset="0.820312" stop-color="rgb(84.608459%, 40.856934%, 89.480591%)" stop-opacity="1"/>
<stop offset="0.824219" stop-color="rgb(84.8526%, 41.015625%, 89.640808%)" stop-opacity="1"/>
<stop offset="0.828125" stop-color="rgb(85.096741%, 41.175842%, 89.802551%)" stop-opacity="1"/>
<stop offset="0.84375" stop-color="rgb(85.096741%, 41.175842%, 89.802551%)" stop-opacity="1"/>
<stop offset="0.875" stop-color="rgb(85.096741%, 41.175842%, 89.802551%)" stop-opacity="1"/>
<stop offset="1" stop-color="rgb(85.096741%, 41.175842%, 89.802551%)" stop-opacity="1"/>
</linearGradient>
<clipPath id="clip-3">
<path clip-rule="nonzero" d="M 2653 2081 L 3456 2081 L 3456 2361 L 2653 2361 Z M 2653 2081 "/>
</clipPath>
<clipPath id="clip-4">
<path clip-rule="nonzero" d="M 3369.03125 2181.800781 C 3360.109375 2181.800781 3353.480469 2184.96875 3349.019531 2191.230469 C 3344.550781 2197.5 3342.320312 2205.699219 3342.320312 2215.78125 L 3342.320312 2225.789062 C 3342.320312 2235.941406 3344.550781 2244.148438 3349.019531 2250.488281 C 3353.480469 2256.890625 3360.109375 2260.058594 3369.03125 2260.058594 C 3386.390625 2260.058594 3395.101562 2249.621094 3395.101562 2228.808594 L 3395.101562 2212.761719 C 3395.101562 2192.171875 3386.390625 2181.800781 3369.03125 2181.800781 Z M 3387.828125 2137.230469 C 3409.5 2137.230469 3426.128906 2144.289062 3437.871094 2158.46875 C 3449.601562 2172.660156 3455.429688 2193.539062 3455.429688 2221.25 C 3455.429688 2248.761719 3449.601562 2269.488281 3437.871094 2283.609375 C 3426.128906 2297.648438 3409.5 2304.628906 3387.828125 2304.628906 C 3369.25 2304.628906 3354.269531 2298.578125 3342.96875 2286.488281 L 3342.96875 2360.789062 L 3282.558594 2360.789062 L 3282.558594 2140.898438 L 3331.738281 2140.898438 L 3336.851562 2163.660156 C 3348.589844 2146.011719 3365.578125 2137.230469 3387.828125 2137.230469 Z M 3162.75 2178.199219 C 3142.960938 2178.199219 3133.089844 2189.578125 3133.089844 2212.46875 L 3133.089844 2229.75 C 3133.089844 2252.359375 3142.960938 2263.730469 3162.75 2263.730469 C 3182.769531 2263.730469 3192.78125 2252.359375 3192.78125 2229.75 L 3192.78125 2212.46875 C 3192.78125 2189.578125 3182.769531 2178.199219 3162.75 2178.199219 Z M 3162.75 2137.230469 C 3190.910156 2137.230469 3213.011719 2144.359375 3229.070312 2158.621094 C 3245.121094 2172.871094 3253.191406 2193.679688 3253.191406 2220.96875 C 3253.191406 2248.25 3245.121094 2268.988281 3229.070312 2283.25 C 3213.011719 2297.5 3190.910156 2304.628906 3162.75 2304.628906 C 3134.671875 2304.628906 3112.640625 2297.570312 3096.660156 2283.390625 C 3080.679688 2269.28125 3072.679688 2248.46875 3072.679688 2220.96875 C 3072.679688 2193.460938 3080.679688 2172.660156 3096.660156 2158.46875 C 3112.640625 2144.289062 3134.671875 2137.230469 3162.75 2137.230469 Z M 2938.039062 2157.539062 C 2944.519531 2151.058594 2952.078125 2146.089844 2960.800781 2142.558594 C 2969.511719 2139.03125 2978.578125 2137.230469 2988.078125 2137.230469 C 3006.660156 2137.230469 3020.628906 2142.421875 3029.921875 2152.710938 C 3039.28125 2163.011719 3043.878906 2177.910156 3043.878906 2197.28125 L 3043.878906 2301.03125 L 2983.550781 2301.03125 L 2983.550781 2204.550781 C 2983.550781 2197.710938 2981.75 2192.171875 2978.21875 2188.058594 C 2974.691406 2183.890625 2969.71875 2181.800781 2963.238281 2181.800781 C 2955.761719 2181.800781 2949.710938 2184.25 2945.03125 2189.070312 C 2940.351562 2193.96875 2938.039062 2199.941406 2938.039062 2207 L 2938.039062 2301.03125 L 2877.710938 2301.03125 L 2877.710938 2081.140625 L 2938.039062 2081.140625 Z M 2750.628906 2088.699219 C 2777.339844 2088.699219 2799.230469 2094.101562 2816.441406 2104.898438 C 2833.648438 2115.78125 2842.429688 2131.761719 2842.789062 2153 L 2842.789062 2156.671875 L 2780.011719 2156.671875 L 2780.011719 2155.449219 C 2780.011719 2149.398438 2777.851562 2144.289062 2773.378906 2140.25 C 2768.921875 2136.21875 2762.148438 2134.210938 2753.078125 2134.210938 C 2744.148438 2134.210938 2737.308594 2135.5 2732.558594 2138.171875 C 2727.808594 2140.761719 2725.429688 2144 2725.429688 2147.890625 C 2725.429688 2153.289062 2728.671875 2157.390625 2735.148438 2159.980469 C 2741.628906 2162.648438 2752 2165.308594 2766.398438 2168.191406 C 2783.171875 2171.578125 2797 2175.171875 2807.800781 2178.921875 C 2818.601562 2182.660156 2828.03125 2188.78125 2836.171875 2197.28125 C 2844.230469 2205.769531 2848.410156 2217.289062 2848.550781 2231.839844 C 2848.550781 2256.53125 2840.269531 2274.820312 2823.570312 2286.769531 C 2806.859375 2298.648438 2784.609375 2304.628906 2756.679688 2304.628906 C 2724.128906 2304.628906 2698.789062 2299.160156 2680.71875 2288.289062 C 2662.648438 2277.339844 2653.578125 2258.050781 2653.578125 2230.328125 L 2716.929688 2230.328125 C 2716.929688 2240.839844 2719.671875 2247.890625 2725.140625 2251.421875 C 2730.609375 2254.949219 2739.109375 2256.75 2750.628906 2256.75 C 2759.128906 2256.75 2766.109375 2255.808594 2771.730469 2254.011719 C 2777.269531 2252.210938 2780.011719 2248.46875 2780.011719 2242.78125 C 2780.011719 2237.738281 2776.980469 2233.929688 2770.789062 2231.410156 C 2764.601562 2228.890625 2754.589844 2226.21875 2740.621094 2223.339844 C 2723.628906 2219.738281 2709.589844 2215.929688 2698.429688 2211.96875 C 2687.339844 2208.078125 2677.621094 2201.53125 2669.339844 2192.460938 C 2661.058594 2183.308594 2656.890625 2171 2656.890625 2155.449219 C 2656.890625 2132.621094 2665.738281 2115.78125 2683.449219 2104.898438 C 2701.089844 2094.101562 2723.558594 2088.699219 2750.628906 2088.699219 Z M 2750.628906 2088.699219 "/>
</clipPath>
<clipPath id="clip-5">
<path clip-rule="nonzero" d="M 3369.03125 2181.800781 C 3360.109375 2181.800781 3353.480469 2184.96875 3349.019531 2191.230469 C 3344.550781 2197.5 3342.320312 2205.699219 3342.320312 2215.78125 L 3342.320312 2225.789062 C 3342.320312 2235.941406 3344.550781 2244.148438 3349.019531 2250.488281 C 3353.480469 2256.890625 3360.109375 2260.058594 3369.03125 2260.058594 C 3386.390625 2260.058594 3395.101562 2249.621094 3395.101562 2228.808594 L 3395.101562 2212.761719 C 3395.101562 2192.171875 3386.390625 2181.800781 3369.03125 2181.800781 Z M 3387.828125 2137.230469 C 3409.5 2137.230469 3426.128906 2144.289062 3437.871094 2158.46875 C 3449.601562 2172.660156 3455.429688 2193.539062 3455.429688 2221.25 C 3455.429688 2248.761719 3449.601562 2269.488281 3437.871094 2283.609375 C 3426.128906 2297.648438 3409.5 2304.628906 3387.828125 2304.628906 C 3369.25 2304.628906 3354.269531 2298.578125 3342.96875 2286.488281 L 3342.96875 2360.789062 L 3282.558594 2360.789062 L 3282.558594 2140.898438 L 3331.738281 2140.898438 L 3336.851562 2163.660156 C 3348.589844 2146.011719 3365.578125 2137.230469 3387.828125 2137.230469 Z M 3162.75 2178.199219 C 3142.960938 2178.199219 3133.089844 2189.578125 3133.089844 2212.46875 L 3133.089844 2229.75 C 3133.089844 2252.359375 3142.960938 2263.730469 3162.75 2263.730469 C 3182.769531 2263.730469 3192.78125 2252.359375 3192.78125 2229.75 L 3192.78125 2212.46875 C 3192.78125 2189.578125 3182.769531 2178.199219 3162.75 2178.199219 Z M 3162.75 2137.230469 C 3190.910156 2137.230469 3213.011719 2144.359375 3229.070312 2158.621094 C 3245.121094 2172.871094 3253.191406 2193.679688 3253.191406 2220.96875 C 3253.191406 2248.25 3245.121094 2268.988281 3229.070312 2283.25 C 3213.011719 2297.5 3190.910156 2304.628906 3162.75 2304.628906 C 3134.671875 2304.628906 3112.640625 2297.570312 3096.660156 2283.390625 C 3080.679688 2269.28125 3072.679688 2248.46875 3072.679688 2220.96875 C 3072.679688 2193.460938 3080.679688 2172.660156 3096.660156 2158.46875 C 3112.640625 2144.289062 3134.671875 2137.230469 3162.75 2137.230469 Z M 2938.039062 2157.539062 C 2944.519531 2151.058594 2952.078125 2146.089844 2960.800781 2142.558594 C 2969.511719 2139.03125 2978.578125 2137.230469 2988.078125 2137.230469 C 3006.660156 2137.230469 3020.628906 2142.421875 3029.921875 2152.710938 C 3039.28125 2163.011719 3043.878906 2177.910156 3043.878906 2197.28125 L 3043.878906 2301.03125 L 2983.550781 2301.03125 L 2983.550781 2204.550781 C 2983.550781 2197.710938 2981.75 2192.171875 2978.21875 2188.058594 C 2974.691406 2183.890625 2969.71875 2181.800781 2963.238281 2181.800781 C 2955.761719 2181.800781 2949.710938 2184.25 2945.03125 2189.070312 C 2940.351562 2193.96875 2938.039062 2199.941406 2938.039062 2207 L 2938.039062 2301.03125 L 2877.710938 2301.03125 L 2877.710938 2081.140625 L 2938.039062 2081.140625 Z M 2750.628906 2088.699219 C 2777.339844 2088.699219 2799.230469 2094.101562 2816.441406 2104.898438 C 2833.648438 2115.78125 2842.429688 2131.761719 2842.789062 2153 L 2842.789062 2156.671875 L 2780.011719 2156.671875 L 2780.011719 2155.449219 C 2780.011719 2149.398438 2777.851562 2144.289062 2773.378906 2140.25 C 2768.921875 2136.21875 2762.148438 2134.210938 2753.078125 2134.210938 C 2744.148438 2134.210938 2737.308594 2135.5 2732.558594 2138.171875 C 2727.808594 2140.761719 2725.429688 2144 2725.429688 2147.890625 C 2725.429688 2153.289062 2728.671875 2157.390625 2735.148438 2159.980469 C 2741.628906 2162.648438 2752 2165.308594 2766.398438 2168.191406 C 2783.171875 2171.578125 2797 2175.171875 2807.800781 2178.921875 C 2818.601562 2182.660156 2828.03125 2188.78125 2836.171875 2197.28125 C 2844.230469 2205.769531 2848.410156 2217.289062 2848.550781 2231.839844 C 2848.550781 2256.53125 2840.269531 2274.820312 2823.570312 2286.769531 C 2806.859375 2298.648438 2784.609375 2304.628906 2756.679688 2304.628906 C 2724.128906 2304.628906 2698.789062 2299.160156 2680.71875 2288.289062 C 2662.648438 2277.339844 2653.578125 2258.050781 2653.578125 2230.328125 L 2716.929688 2230.328125 C 2716.929688 2240.839844 2719.671875 2247.890625 2725.140625 2251.421875 C 2730.609375 2254.949219 2739.109375 2256.75 2750.628906 2256.75 C 2759.128906 2256.75 2766.109375 2255.808594 2771.730469 2254.011719 C 2777.269531 2252.210938 2780.011719 2248.46875 2780.011719 2242.78125 C 2780.011719 2237.738281 2776.980469 2233.929688 2770.789062 2231.410156 C 2764.601562 2228.890625 2754.589844 2226.21875 2740.621094 2223.339844 C 2723.628906 2219.738281 2709.589844 2215.929688 2698.429688 2211.96875 C 2687.339844 2208.078125 2677.621094 2201.53125 2669.339844 2192.460938 C 2661.058594 2183.308594 2656.890625 2171 2656.890625 2155.449219 C 2656.890625 2132.621094 2665.738281 2115.78125 2683.449219 2104.898438 C 2701.089844 2094.101562 2723.558594 2088.699219 2750.628906 2088.699219 "/>
</clipPath>
<linearGradient id="linear-pattern-1" gradientUnits="userSpaceOnUse" x1="-0.0000000626498" y1="0" x2="1.000011" y2="0" gradientTransform="matrix(-0.00001222, -279.647, -279.647, 0.00001222, 3054.5, 2360.79)">
<stop offset="0" stop-color="rgb(33.332825%, 7.450867%, 55.685425%)" stop-opacity="1"/>
<stop offset="0.00390625" stop-color="rgb(33.534241%, 7.582092%, 55.818176%)" stop-opacity="1"/>
<stop offset="0.0078125" stop-color="rgb(33.737183%, 7.713318%, 55.952454%)" stop-opacity="1"/>
<stop offset="0.0117188" stop-color="rgb(33.938599%, 7.844543%, 56.085205%)" stop-opacity="1"/>
<stop offset="0.015625" stop-color="rgb(34.141541%, 7.977295%, 56.217957%)" stop-opacity="1"/>
<stop offset="0.0195312" stop-color="rgb(34.342957%, 8.108521%, 56.350708%)" stop-opacity="1"/>
<stop offset="0.0234375" stop-color="rgb(34.545898%, 8.241272%, 56.484985%)" stop-opacity="1"/>
<stop offset="0.0273438" stop-color="rgb(34.747314%, 8.372498%, 56.617737%)" stop-opacity="1"/>
<stop offset="0.03125" stop-color="rgb(34.950256%, 8.503723%, 56.752014%)" stop-opacity="1"/>
<stop offset="0.0351562" stop-color="rgb(35.151672%, 8.634949%, 56.884766%)" stop-opacity="1"/>
<stop offset="0.0390625" stop-color="rgb(35.354614%, 8.7677%, 57.017517%)" stop-opacity="1"/>
<stop offset="0.0429688" stop-color="rgb(35.55603%, 8.898926%, 57.150269%)" stop-opacity="1"/>
<stop offset="0.046875" stop-color="rgb(35.758972%, 9.031677%, 57.284546%)" stop-opacity="1"/>
<stop offset="0.0507812" stop-color="rgb(35.960388%, 9.162903%, 57.417297%)" stop-opacity="1"/>
<stop offset="0.0546875" stop-color="rgb(36.16333%, 9.294128%, 57.551575%)" stop-opacity="1"/>
<stop offset="0.0585938" stop-color="rgb(36.364746%, 9.425354%, 57.684326%)" stop-opacity="1"/>
<stop offset="0.0625" stop-color="rgb(36.567688%, 9.558105%, 57.818604%)" stop-opacity="1"/>
<stop offset="0.0664062" stop-color="rgb(36.769104%, 9.689331%, 57.951355%)" stop-opacity="1"/>
<stop offset="0.0703125" stop-color="rgb(36.972046%, 9.822083%, 58.084106%)" stop-opacity="1"/>
<stop offset="0.0742188" stop-color="rgb(37.173462%, 9.953308%, 58.216858%)" stop-opacity="1"/>
<stop offset="0.078125" stop-color="rgb(37.376404%, 10.084534%, 58.351135%)" stop-opacity="1"/>
<stop offset="0.0820312" stop-color="rgb(37.57782%, 10.215759%, 58.483887%)" stop-opacity="1"/>
<stop offset="0.0859375" stop-color="rgb(37.780762%, 10.348511%, 58.618164%)" stop-opacity="1"/>
<stop offset="0.0898438" stop-color="rgb(37.982178%, 10.479736%, 58.750916%)" stop-opacity="1"/>
<stop offset="0.09375" stop-color="rgb(38.18512%, 10.612488%, 58.883667%)" stop-opacity="1"/>
<stop offset="0.0976562" stop-color="rgb(38.386536%, 10.743713%, 59.016418%)" stop-opacity="1"/>
<stop offset="0.101562" stop-color="rgb(38.589478%, 10.874939%, 59.150696%)" stop-opacity="1"/>
<stop offset="0.105469" stop-color="rgb(38.790894%, 11.006165%, 59.283447%)" stop-opacity="1"/>
<stop offset="0.109375" stop-color="rgb(38.993835%, 11.138916%, 59.417725%)" stop-opacity="1"/>
<stop offset="0.113281" stop-color="rgb(39.195251%, 11.270142%, 59.550476%)" stop-opacity="1"/>
<stop offset="0.117188" stop-color="rgb(39.398193%, 11.402893%, 59.683228%)" stop-opacity="1"/>
<stop offset="0.121094" stop-color="rgb(39.599609%, 11.534119%, 59.815979%)" stop-opacity="1"/>
<stop offset="0.125" stop-color="rgb(39.802551%, 11.665344%, 59.950256%)" stop-opacity="1"/>
<stop offset="0.128906" stop-color="rgb(40.003967%, 11.79657%, 60.083008%)" stop-opacity="1"/>
<stop offset="0.132812" stop-color="rgb(40.206909%, 11.929321%, 60.217285%)" stop-opacity="1"/>
<stop offset="0.136719" stop-color="rgb(40.408325%, 12.060547%, 60.350037%)" stop-opacity="1"/>
<stop offset="0.140625" stop-color="rgb(40.611267%, 12.193298%, 60.482788%)" stop-opacity="1"/>
<stop offset="0.144531" stop-color="rgb(40.814209%, 12.324524%, 60.61554%)" stop-opacity="1"/>
<stop offset="0.148438" stop-color="rgb(41.017151%, 12.45575%, 60.749817%)" stop-opacity="1"/>
<stop offset="0.152344" stop-color="rgb(41.218567%, 12.586975%, 60.882568%)" stop-opacity="1"/>
<stop offset="0.15625" stop-color="rgb(41.421509%, 12.719727%, 61.016846%)" stop-opacity="1"/>
<stop offset="0.160156" stop-color="rgb(41.622925%, 12.850952%, 61.149597%)" stop-opacity="1"/>
<stop offset="0.164062" stop-color="rgb(41.825867%, 12.983704%, 61.282349%)" stop-opacity="1"/>
<stop offset="0.167969" stop-color="rgb(42.027283%, 13.114929%, 61.4151%)" stop-opacity="1"/>
<stop offset="0.171875" stop-color="rgb(42.230225%, 13.246155%, 61.549377%)" stop-opacity="1"/>
<stop offset="0.175781" stop-color="rgb(42.431641%, 13.37738%, 61.682129%)" stop-opacity="1"/>
<stop offset="0.179688" stop-color="rgb(42.634583%, 13.510132%, 61.816406%)" stop-opacity="1"/>
<stop offset="0.183594" stop-color="rgb(42.835999%, 13.641357%, 61.949158%)" stop-opacity="1"/>
<stop offset="0.1875" stop-color="rgb(43.03894%, 13.774109%, 62.081909%)" stop-opacity="1"/>
<stop offset="0.191406" stop-color="rgb(43.240356%, 13.905334%, 62.214661%)" stop-opacity="1"/>
<stop offset="0.195312" stop-color="rgb(43.443298%, 14.03656%, 62.348938%)" stop-opacity="1"/>
<stop offset="0.199219" stop-color="rgb(43.644714%, 14.167786%, 62.481689%)" stop-opacity="1"/>
<stop offset="0.203125" stop-color="rgb(43.847656%, 14.300537%, 62.615967%)" stop-opacity="1"/>
<stop offset="0.207031" stop-color="rgb(44.049072%, 14.431763%, 62.748718%)" stop-opacity="1"/>
<stop offset="0.210938" stop-color="rgb(44.252014%, 14.564514%, 62.882996%)" stop-opacity="1"/>
<stop offset="0.214844" stop-color="rgb(44.45343%, 14.69574%, 63.015747%)" stop-opacity="1"/>
<stop offset="0.21875" stop-color="rgb(44.656372%, 14.828491%, 63.148499%)" stop-opacity="1"/>
<stop offset="0.222656" stop-color="rgb(44.857788%, 14.959717%, 63.28125%)" stop-opacity="1"/>
<stop offset="0.226562" stop-color="rgb(45.06073%, 15.090942%, 63.415527%)" stop-opacity="1"/>
<stop offset="0.230469" stop-color="rgb(45.262146%, 15.222168%, 63.548279%)" stop-opacity="1"/>
<stop offset="0.234375" stop-color="rgb(45.465088%, 15.354919%, 63.682556%)" stop-opacity="1"/>
<stop offset="0.238281" stop-color="rgb(45.666504%, 15.486145%, 63.815308%)" stop-opacity="1"/>
<stop offset="0.242188" stop-color="rgb(45.869446%, 15.618896%, 63.948059%)" stop-opacity="1"/>
<stop offset="0.246094" stop-color="rgb(46.070862%, 15.750122%, 64.080811%)" stop-opacity="1"/>
<stop offset="0.25" stop-color="rgb(46.273804%, 15.881348%, 64.215088%)" stop-opacity="1"/>
<stop offset="0.253906" stop-color="rgb(46.47522%, 16.012573%, 64.347839%)" stop-opacity="1"/>
<stop offset="0.257812" stop-color="rgb(46.678162%, 16.145325%, 64.482117%)" stop-opacity="1"/>
<stop offset="0.261719" stop-color="rgb(46.879578%, 16.27655%, 64.614868%)" stop-opacity="1"/>
<stop offset="0.265625" stop-color="rgb(47.08252%, 16.409302%, 64.74762%)" stop-opacity="1"/>
<stop offset="0.269531" stop-color="rgb(47.283936%, 16.540527%, 64.880371%)" stop-opacity="1"/>
<stop offset="0.273437" stop-color="rgb(47.486877%, 16.671753%, 65.014648%)" stop-opacity="1"/>
<stop offset="0.277344" stop-color="rgb(47.688293%, 16.802979%, 65.1474%)" stop-opacity="1"/>
<stop offset="0.28125" stop-color="rgb(47.891235%, 16.93573%, 65.281677%)" stop-opacity="1"/>
<stop offset="0.285156" stop-color="rgb(48.092651%, 17.066956%, 65.414429%)" stop-opacity="1"/>
<stop offset="0.289063" stop-color="rgb(48.295593%, 17.199707%, 65.54718%)" stop-opacity="1"/>
<stop offset="0.292969" stop-color="rgb(48.497009%, 17.330933%, 65.679932%)" stop-opacity="1"/>
<stop offset="0.296875" stop-color="rgb(48.699951%, 17.462158%, 65.814209%)" stop-opacity="1"/>
<stop offset="0.300781" stop-color="rgb(48.901367%, 17.593384%, 65.94696%)" stop-opacity="1"/>
<stop offset="0.304688" stop-color="rgb(49.104309%, 17.726135%, 66.081238%)" stop-opacity="1"/>
<stop offset="0.308594" stop-color="rgb(49.305725%, 17.857361%, 66.213989%)" stop-opacity="1"/>
<stop offset="0.3125" stop-color="rgb(49.508667%, 17.990112%, 66.346741%)" stop-opacity="1"/>
<stop offset="0.316406" stop-color="rgb(49.710083%, 18.121338%, 66.479492%)" stop-opacity="1"/>
<stop offset="0.320312" stop-color="rgb(49.913025%, 18.252563%, 66.61377%)" stop-opacity="1"/>
<stop offset="0.324219" stop-color="rgb(50.114441%, 18.383789%, 66.746521%)" stop-opacity="1"/>
<stop offset="0.328125" stop-color="rgb(50.317383%, 18.516541%, 66.880798%)" stop-opacity="1"/>
<stop offset="0.332031" stop-color="rgb(50.518799%, 18.647766%, 67.01355%)" stop-opacity="1"/>
<stop offset="0.335937" stop-color="rgb(50.721741%, 18.780518%, 67.146301%)" stop-opacity="1"/>
<stop offset="0.339844" stop-color="rgb(50.923157%, 18.911743%, 67.279053%)" stop-opacity="1"/>
<stop offset="0.34375" stop-color="rgb(51.126099%, 19.042969%, 67.41333%)" stop-opacity="1"/>
<stop offset="0.347656" stop-color="rgb(51.329041%, 19.174194%, 67.546082%)" stop-opacity="1"/>
<stop offset="0.351563" stop-color="rgb(51.531982%, 19.306946%, 67.680359%)" stop-opacity="1"/>
<stop offset="0.355469" stop-color="rgb(51.733398%, 19.438171%, 67.81311%)" stop-opacity="1"/>
<stop offset="0.359375" stop-color="rgb(51.93634%, 19.570923%, 67.947388%)" stop-opacity="1"/>
<stop offset="0.363281" stop-color="rgb(52.137756%, 19.702148%, 68.080139%)" stop-opacity="1"/>
<stop offset="0.367188" stop-color="rgb(52.340698%, 19.833374%, 68.212891%)" stop-opacity="1"/>
<stop offset="0.371094" stop-color="rgb(52.542114%, 19.9646%, 68.345642%)" stop-opacity="1"/>
<stop offset="0.375" stop-color="rgb(52.745056%, 20.097351%, 68.479919%)" stop-opacity="1"/>
<stop offset="0.378906" stop-color="rgb(52.946472%, 20.228577%, 68.612671%)" stop-opacity="1"/>
<stop offset="0.382812" stop-color="rgb(53.149414%, 20.361328%, 68.746948%)" stop-opacity="1"/>
<stop offset="0.386719" stop-color="rgb(53.35083%, 20.492554%, 68.8797%)" stop-opacity="1"/>
<stop offset="0.390625" stop-color="rgb(53.553772%, 20.623779%, 69.012451%)" stop-opacity="1"/>
<stop offset="0.394531" stop-color="rgb(53.755188%, 20.755005%, 69.145203%)" stop-opacity="1"/>
<stop offset="0.398437" stop-color="rgb(53.95813%, 20.887756%, 69.27948%)" stop-opacity="1"/>
<stop offset="0.402344" stop-color="rgb(54.159546%, 21.018982%, 69.412231%)" stop-opacity="1"/>
<stop offset="0.40625" stop-color="rgb(54.362488%, 21.151733%, 69.546509%)" stop-opacity="1"/>
<stop offset="0.410156" stop-color="rgb(54.563904%, 21.282959%, 69.67926%)" stop-opacity="1"/>
<stop offset="0.414063" stop-color="rgb(54.766846%, 21.414185%, 69.812012%)" stop-opacity="1"/>
<stop offset="0.417969" stop-color="rgb(54.968262%, 21.54541%, 69.944763%)" stop-opacity="1"/>
<stop offset="0.421875" stop-color="rgb(55.171204%, 21.678162%, 70.079041%)" stop-opacity="1"/>
<stop offset="0.425781" stop-color="rgb(55.37262%, 21.809387%, 70.211792%)" stop-opacity="1"/>
<stop offset="0.429688" stop-color="rgb(55.575562%, 21.942139%, 70.346069%)" stop-opacity="1"/>
<stop offset="0.433594" stop-color="rgb(55.776978%, 22.073364%, 70.478821%)" stop-opacity="1"/>
<stop offset="0.4375" stop-color="rgb(55.979919%, 22.20459%, 70.611572%)" stop-opacity="1"/>
<stop offset="0.441406" stop-color="rgb(56.181335%, 22.335815%, 70.744324%)" stop-opacity="1"/>
<stop offset="0.445312" stop-color="rgb(56.384277%, 22.468567%, 70.878601%)" stop-opacity="1"/>
<stop offset="0.449219" stop-color="rgb(56.585693%, 22.599792%, 71.011353%)" stop-opacity="1"/>
<stop offset="0.453125" stop-color="rgb(56.788635%, 22.732544%, 71.14563%)" stop-opacity="1"/>
<stop offset="0.457031" stop-color="rgb(56.990051%, 22.86377%, 71.278381%)" stop-opacity="1"/>
<stop offset="0.460937" stop-color="rgb(57.192993%, 22.994995%, 71.411133%)" stop-opacity="1"/>
<stop offset="0.464844" stop-color="rgb(57.394409%, 23.126221%, 71.543884%)" stop-opacity="1"/>
<stop offset="0.46875" stop-color="rgb(57.597351%, 23.258972%, 71.678162%)" stop-opacity="1"/>
<stop offset="0.472656" stop-color="rgb(57.798767%, 23.390198%, 71.810913%)" stop-opacity="1"/>
<stop offset="0.476563" stop-color="rgb(58.001709%, 23.522949%, 71.94519%)" stop-opacity="1"/>
<stop offset="0.480469" stop-color="rgb(58.203125%, 23.654175%, 72.077942%)" stop-opacity="1"/>
<stop offset="0.484375" stop-color="rgb(58.406067%, 23.786926%, 72.210693%)" stop-opacity="1"/>
<stop offset="0.488281" stop-color="rgb(58.607483%, 23.918152%, 72.343445%)" stop-opacity="1"/>
<stop offset="0.492188" stop-color="rgb(58.810425%, 24.049377%, 72.477722%)" stop-opacity="1"/>
<stop offset="0.496094" stop-color="rgb(59.011841%, 24.180603%, 72.610474%)" stop-opacity="1"/>
<stop offset="0.5" stop-color="rgb(59.214783%, 24.313354%, 72.744751%)" stop-opacity="1"/>
<stop offset="0.503906" stop-color="rgb(59.416199%, 24.44458%, 72.877502%)" stop-opacity="1"/>
<stop offset="0.507812" stop-color="rgb(59.619141%, 24.577332%, 73.01178%)" stop-opacity="1"/>
<stop offset="0.511719" stop-color="rgb(59.820557%, 24.708557%, 73.144531%)" stop-opacity="1"/>
<stop offset="0.515625" stop-color="rgb(60.023499%, 24.839783%, 73.277283%)" stop-opacity="1"/>
<stop offset="0.519531" stop-color="rgb(60.224915%, 24.971008%, 73.410034%)" stop-opacity="1"/>
<stop offset="0.523438" stop-color="rgb(60.427856%, 25.10376%, 73.544312%)" stop-opacity="1"/>
<stop offset="0.527344" stop-color="rgb(60.629272%, 25.234985%, 73.677063%)" stop-opacity="1"/>
<stop offset="0.53125" stop-color="rgb(60.832214%, 25.367737%, 73.81134%)" stop-opacity="1"/>
<stop offset="0.535156" stop-color="rgb(61.03363%, 25.498962%, 73.944092%)" stop-opacity="1"/>
<stop offset="0.539062" stop-color="rgb(61.236572%, 25.630188%, 74.076843%)" stop-opacity="1"/>
<stop offset="0.542969" stop-color="rgb(61.437988%, 25.761414%, 74.209595%)" stop-opacity="1"/>
<stop offset="0.546875" stop-color="rgb(61.64093%, 25.894165%, 74.343872%)" stop-opacity="1"/>
<stop offset="0.550781" stop-color="rgb(61.843872%, 26.025391%, 74.476624%)" stop-opacity="1"/>
<stop offset="0.554688" stop-color="rgb(62.046814%, 26.158142%, 74.610901%)" stop-opacity="1"/>
<stop offset="0.558594" stop-color="rgb(62.24823%, 26.289368%, 74.743652%)" stop-opacity="1"/>
<stop offset="0.5625" stop-color="rgb(62.451172%, 26.420593%, 74.876404%)" stop-opacity="1"/>
<stop offset="0.566406" stop-color="rgb(62.652588%, 26.551819%, 75.009155%)" stop-opacity="1"/>
<stop offset="0.570312" stop-color="rgb(62.85553%, 26.68457%, 75.143433%)" stop-opacity="1"/>
<stop offset="0.574219" stop-color="rgb(63.056946%, 26.815796%, 75.276184%)" stop-opacity="1"/>
<stop offset="0.578125" stop-color="rgb(63.259888%, 26.948547%, 75.410461%)" stop-opacity="1"/>
<stop offset="0.582031" stop-color="rgb(63.461304%, 27.079773%, 75.543213%)" stop-opacity="1"/>
<stop offset="0.585938" stop-color="rgb(63.664246%, 27.210999%, 75.675964%)" stop-opacity="1"/>
<stop offset="0.589844" stop-color="rgb(63.865662%, 27.342224%, 75.808716%)" stop-opacity="1"/>
<stop offset="0.59375" stop-color="rgb(64.068604%, 27.474976%, 75.942993%)" stop-opacity="1"/>
<stop offset="0.597656" stop-color="rgb(64.27002%, 27.606201%, 76.075745%)" stop-opacity="1"/>
<stop offset="0.601562" stop-color="rgb(64.472961%, 27.738953%, 76.210022%)" stop-opacity="1"/>
<stop offset="0.605469" stop-color="rgb(64.674377%, 27.870178%, 76.342773%)" stop-opacity="1"/>
<stop offset="0.609375" stop-color="rgb(64.877319%, 28.001404%, 76.475525%)" stop-opacity="1"/>
<stop offset="0.613281" stop-color="rgb(65.078735%, 28.132629%, 76.608276%)" stop-opacity="1"/>
<stop offset="0.617188" stop-color="rgb(65.281677%, 28.265381%, 76.742554%)" stop-opacity="1"/>
<stop offset="0.621094" stop-color="rgb(65.483093%, 28.396606%, 76.875305%)" stop-opacity="1"/>
<stop offset="0.625" stop-color="rgb(65.686035%, 28.529358%, 77.009583%)" stop-opacity="1"/>
<stop offset="0.628906" stop-color="rgb(65.887451%, 28.660583%, 77.142334%)" stop-opacity="1"/>
<stop offset="0.632812" stop-color="rgb(66.090393%, 28.791809%, 77.275085%)" stop-opacity="1"/>
<stop offset="0.636719" stop-color="rgb(66.291809%, 28.923035%, 77.407837%)" stop-opacity="1"/>
<stop offset="0.640625" stop-color="rgb(66.494751%, 29.055786%, 77.542114%)" stop-opacity="1"/>
<stop offset="0.644531" stop-color="rgb(66.696167%, 29.187012%, 77.674866%)" stop-opacity="1"/>
<stop offset="0.648438" stop-color="rgb(66.899109%, 29.319763%, 77.809143%)" stop-opacity="1"/>
<stop offset="0.652344" stop-color="rgb(67.100525%, 29.450989%, 77.941895%)" stop-opacity="1"/>
<stop offset="0.65625" stop-color="rgb(67.303467%, 29.582214%, 78.076172%)" stop-opacity="1"/>
<stop offset="0.660156" stop-color="rgb(67.504883%, 29.71344%, 78.208923%)" stop-opacity="1"/>
<stop offset="0.664062" stop-color="rgb(67.707825%, 29.846191%, 78.341675%)" stop-opacity="1"/>
<stop offset="0.667969" stop-color="rgb(67.909241%, 29.977417%, 78.474426%)" stop-opacity="1"/>
<stop offset="0.671875" stop-color="rgb(68.112183%, 30.110168%, 78.608704%)" stop-opacity="1"/>
<stop offset="0.675781" stop-color="rgb(68.313599%, 30.241394%, 78.741455%)" stop-opacity="1"/>
<stop offset="0.679688" stop-color="rgb(68.516541%, 30.37262%, 78.875732%)" stop-opacity="1"/>
<stop offset="0.683594" stop-color="rgb(68.717957%, 30.503845%, 79.008484%)" stop-opacity="1"/>
<stop offset="0.6875" stop-color="rgb(68.920898%, 30.636597%, 79.141235%)" stop-opacity="1"/>
<stop offset="0.691406" stop-color="rgb(69.122314%, 30.767822%, 79.273987%)" stop-opacity="1"/>
<stop offset="0.695312" stop-color="rgb(69.325256%, 30.900574%, 79.408264%)" stop-opacity="1"/>
<stop offset="0.699219" stop-color="rgb(69.526672%, 31.031799%, 79.541016%)" stop-opacity="1"/>
<stop offset="0.703125" stop-color="rgb(69.729614%, 31.163025%, 79.675293%)" stop-opacity="1"/>
<stop offset="0.707031" stop-color="rgb(69.93103%, 31.29425%, 79.808044%)" stop-opacity="1"/>
<stop offset="0.710938" stop-color="rgb(70.133972%, 31.427002%, 79.940796%)" stop-opacity="1"/>
<stop offset="0.714844" stop-color="rgb(70.335388%, 31.558228%, 80.073547%)" stop-opacity="1"/>
<stop offset="0.71875" stop-color="rgb(70.53833%, 31.690979%, 80.207825%)" stop-opacity="1"/>
<stop offset="0.722656" stop-color="rgb(70.739746%, 31.822205%, 80.340576%)" stop-opacity="1"/>
<stop offset="0.726562" stop-color="rgb(70.942688%, 31.95343%, 80.474854%)" stop-opacity="1"/>
<stop offset="0.730469" stop-color="rgb(71.144104%, 32.084656%, 80.607605%)" stop-opacity="1"/>
<stop offset="0.734375" stop-color="rgb(71.347046%, 32.217407%, 80.740356%)" stop-opacity="1"/>
<stop offset="0.738281" stop-color="rgb(71.548462%, 32.348633%, 80.873108%)" stop-opacity="1"/>
<stop offset="0.742188" stop-color="rgb(71.751404%, 32.481384%, 81.007385%)" stop-opacity="1"/>
<stop offset="0.746094" stop-color="rgb(71.95282%, 32.61261%, 81.140137%)" stop-opacity="1"/>
<stop offset="0.75" stop-color="rgb(72.155762%, 32.745361%, 81.274414%)" stop-opacity="1"/>
<stop offset="0.753906" stop-color="rgb(72.358704%, 32.876587%, 81.407166%)" stop-opacity="1"/>
<stop offset="0.757812" stop-color="rgb(72.561646%, 33.007812%, 81.539917%)" stop-opacity="1"/>
<stop offset="0.761719" stop-color="rgb(72.763062%, 33.139038%, 81.672668%)" stop-opacity="1"/>
<stop offset="0.765625" stop-color="rgb(72.966003%, 33.27179%, 81.806946%)" stop-opacity="1"/>
<stop offset="0.769531" stop-color="rgb(73.167419%, 33.403015%, 81.939697%)" stop-opacity="1"/>
<stop offset="0.773438" stop-color="rgb(73.370361%, 33.535767%, 82.073975%)" stop-opacity="1"/>
<stop offset="0.777344" stop-color="rgb(73.571777%, 33.666992%, 82.206726%)" stop-opacity="1"/>
<stop offset="0.78125" stop-color="rgb(73.774719%, 33.798218%, 82.339478%)" stop-opacity="1"/>
<stop offset="0.785156" stop-color="rgb(73.976135%, 33.929443%, 82.472229%)" stop-opacity="1"/>
<stop offset="0.789062" stop-color="rgb(74.179077%, 34.062195%, 82.606506%)" stop-opacity="1"/>
<stop offset="0.792969" stop-color="rgb(74.380493%, 34.19342%, 82.739258%)" stop-opacity="1"/>
<stop offset="0.796875" stop-color="rgb(74.583435%, 34.326172%, 82.873535%)" stop-opacity="1"/>
<stop offset="0.800781" stop-color="rgb(74.784851%, 34.457397%, 83.006287%)" stop-opacity="1"/>
<stop offset="0.804688" stop-color="rgb(74.987793%, 34.588623%, 83.140564%)" stop-opacity="1"/>
<stop offset="0.808594" stop-color="rgb(75.189209%, 34.719849%, 83.273315%)" stop-opacity="1"/>
<stop offset="0.8125" stop-color="rgb(75.392151%, 34.8526%, 83.406067%)" stop-opacity="1"/>
<stop offset="0.816406" stop-color="rgb(75.593567%, 34.983826%, 83.538818%)" stop-opacity="1"/>
<stop offset="0.820312" stop-color="rgb(75.796509%, 35.116577%, 83.673096%)" stop-opacity="1"/>
<stop offset="0.824219" stop-color="rgb(75.997925%, 35.247803%, 83.805847%)" stop-opacity="1"/>
<stop offset="0.828125" stop-color="rgb(76.200867%, 35.379028%, 83.940125%)" stop-opacity="1"/>
<stop offset="0.832031" stop-color="rgb(76.402283%, 35.510254%, 84.072876%)" stop-opacity="1"/>
<stop offset="0.835938" stop-color="rgb(76.605225%, 35.643005%, 84.205627%)" stop-opacity="1"/>
<stop offset="0.839844" stop-color="rgb(76.806641%, 35.774231%, 84.338379%)" stop-opacity="1"/>
<stop offset="0.84375" stop-color="rgb(77.009583%, 35.906982%, 84.472656%)" stop-opacity="1"/>
<stop offset="0.847656" stop-color="rgb(77.210999%, 36.038208%, 84.605408%)" stop-opacity="1"/>
<stop offset="0.851562" stop-color="rgb(77.41394%, 36.169434%, 84.739685%)" stop-opacity="1"/>
<stop offset="0.855469" stop-color="rgb(77.615356%, 36.300659%, 84.872437%)" stop-opacity="1"/>
<stop offset="0.859375" stop-color="rgb(77.818298%, 36.433411%, 85.005188%)" stop-opacity="1"/>
<stop offset="0.863281" stop-color="rgb(78.019714%, 36.564636%, 85.137939%)" stop-opacity="1"/>
<stop offset="0.867188" stop-color="rgb(78.222656%, 36.697388%, 85.272217%)" stop-opacity="1"/>
<stop offset="0.871094" stop-color="rgb(78.424072%, 36.828613%, 85.404968%)" stop-opacity="1"/>
<stop offset="0.875" stop-color="rgb(78.627014%, 36.959839%, 85.539246%)" stop-opacity="1"/>
<stop offset="0.878906" stop-color="rgb(78.82843%, 37.091064%, 85.671997%)" stop-opacity="1"/>
<stop offset="0.882812" stop-color="rgb(79.031372%, 37.223816%, 85.804749%)" stop-opacity="1"/>
<stop offset="0.886719" stop-color="rgb(79.232788%, 37.355042%, 85.9375%)" stop-opacity="1"/>
<stop offset="0.890625" stop-color="rgb(79.43573%, 37.487793%, 86.071777%)" stop-opacity="1"/>
<stop offset="0.894531" stop-color="rgb(79.637146%, 37.619019%, 86.204529%)" stop-opacity="1"/>
<stop offset="0.898438" stop-color="rgb(79.840088%, 37.750244%, 86.338806%)" stop-opacity="1"/>
<stop offset="0.902344" stop-color="rgb(80.041504%, 37.88147%, 86.471558%)" stop-opacity="1"/>
<stop offset="0.90625" stop-color="rgb(80.244446%, 38.014221%, 86.604309%)" stop-opacity="1"/>
<stop offset="0.910156" stop-color="rgb(80.445862%, 38.145447%, 86.737061%)" stop-opacity="1"/>
<stop offset="0.914062" stop-color="rgb(80.648804%, 38.278198%, 86.871338%)" stop-opacity="1"/>
<stop offset="0.917969" stop-color="rgb(80.85022%, 38.409424%, 87.004089%)" stop-opacity="1"/>
<stop offset="0.921875" stop-color="rgb(81.053162%, 38.540649%, 87.138367%)" stop-opacity="1"/>
<stop offset="0.925781" stop-color="rgb(81.254578%, 38.671875%, 87.271118%)" stop-opacity="1"/>
<stop offset="0.929688" stop-color="rgb(81.45752%, 38.804626%, 87.40387%)" stop-opacity="1"/>
<stop offset="0.933594" stop-color="rgb(81.658936%, 38.935852%, 87.536621%)" stop-opacity="1"/>
<stop offset="0.9375" stop-color="rgb(81.861877%, 39.068604%, 87.670898%)" stop-opacity="1"/>
<stop offset="0.941406" stop-color="rgb(82.063293%, 39.199829%, 87.80365%)" stop-opacity="1"/>
<stop offset="0.945312" stop-color="rgb(82.266235%, 39.331055%, 87.937927%)" stop-opacity="1"/>
<stop offset="0.949219" stop-color="rgb(82.467651%, 39.46228%, 88.070679%)" stop-opacity="1"/>
<stop offset="0.953125" stop-color="rgb(82.670593%, 39.595032%, 88.204956%)" stop-opacity="1"/>
<stop offset="0.957031" stop-color="rgb(82.873535%, 39.726257%, 88.337708%)" stop-opacity="1"/>
<stop offset="0.960938" stop-color="rgb(83.076477%, 39.859009%, 88.470459%)" stop-opacity="1"/>
<stop offset="0.964844" stop-color="rgb(83.277893%, 39.990234%, 88.60321%)" stop-opacity="1"/>
<stop offset="0.96875" stop-color="rgb(83.480835%, 40.12146%, 88.737488%)" stop-opacity="1"/>
<stop offset="0.972656" stop-color="rgb(83.682251%, 40.252686%, 88.870239%)" stop-opacity="1"/>
<stop offset="0.976562" stop-color="rgb(83.885193%, 40.385437%, 89.004517%)" stop-opacity="1"/>
<stop offset="0.980469" stop-color="rgb(84.086609%, 40.516663%, 89.137268%)" stop-opacity="1"/>
<stop offset="0.984375" stop-color="rgb(84.289551%, 40.649414%, 89.27002%)" stop-opacity="1"/>
<stop offset="0.988281" stop-color="rgb(84.490967%, 40.78064%, 89.402771%)" stop-opacity="1"/>
<stop offset="0.992188" stop-color="rgb(84.693909%, 40.911865%, 89.537048%)" stop-opacity="1"/>
<stop offset="0.996094" stop-color="rgb(84.895325%, 41.043091%, 89.6698%)" stop-opacity="1"/>
<stop offset="1" stop-color="rgb(85.096741%, 41.175842%, 89.802551%)" stop-opacity="1"/>
</linearGradient>
</defs>
<rect x="-500" y="-300" width="6000" height="3600" fill="rgb(100%, 100%, 100%)" fill-opacity="1"/>
<g clip-path="url(#clip-0)">
<g clip-path="url(#clip-1)">
<g clip-path="url(#clip-2)">
<path fill-rule="nonzero" fill="url(#linear-pattern-0)" d="M 2474.417969 2013.8125 L 1507.894531 1523.691406 L 2022.164062 509.546875 L 2988.6875 999.667969 Z M 2474.417969 2013.8125 "/>
</g>
</g>
</g>
<path fill-rule="nonzero" fill="rgb(100%, 100%, 100%)" fill-opacity="1" d="M 2483.441406 907.699219 C 2497.398438 907.699219 2508.710938 918.910156 2508.710938 932.75 C 2508.710938 946.589844 2497.398438 957.808594 2483.441406 957.808594 C 2469.480469 957.808594 2458.171875 946.589844 2458.171875 932.75 C 2458.171875 918.910156 2469.480469 907.699219 2483.441406 907.699219 "/>
<path fill-rule="nonzero" fill="rgb(100%, 100%, 100%)" fill-opacity="1" d="M 2057.199219 907.699219 C 2071.160156 907.699219 2082.46875 918.910156 2082.46875 932.75 C 2082.46875 946.589844 2071.160156 957.808594 2057.199219 957.808594 C 2043.25 957.808594 2031.929688 946.589844 2031.929688 932.75 C 2031.929688 918.910156 2043.25 907.699219 2057.199219 907.699219 "/>
<path fill-rule="nonzero" fill="rgb(0.784302%, 5.488586%, 11.767578%)" fill-opacity="1" d="M 2075.128906 928.359375 C 2075.128906 937.859375 2067.5 945.570312 2058 945.570312 C 2048.488281 945.570312 2040.789062 937.859375 2040.789062 928.359375 L 2040.789062 766.71875 C 2040.789062 705.378906 2065.921875 649.578125 2106.378906 609.109375 C 2146.769531 568.71875 2202.570312 543.589844 2263.988281 543.589844 L 2276.871094 543.589844 C 2338.21875 543.589844 2394.019531 568.71875 2434.410156 609.109375 C 2474.871094 649.578125 2500 705.378906 2500 766.71875 L 2500 928.359375 C 2500 937.859375 2492.300781 945.570312 2482.789062 945.570312 C 2473.359375 945.570312 2465.660156 937.859375 2465.660156 928.359375 L 2465.660156 766.71875 C 2465.660156 714.808594 2444.421875 667.648438 2410.140625 633.378906 C 2375.941406 599.179688 2328.710938 577.941406 2276.871094 577.941406 L 2263.988281 577.941406 C 2212.070312 577.941406 2164.839844 599.179688 2130.640625 633.378906 C 2096.371094 667.648438 2075.128906 714.808594 2075.128906 766.71875 L 2075.128906 928.359375 "/>
<path fill-rule="nonzero" fill="rgb(0.784302%, 5.488586%, 11.767578%)" fill-opacity="1" d="M 2708.800781 1947.800781 C 2689.859375 1947.800781 2674.53125 1932.390625 2674.53125 1913.460938 C 2674.53125 1894.449219 2689.859375 1879.109375 2708.800781 1879.109375 L 2745.730469 1879.109375 C 2764.671875 1879.109375 2780.011719 1894.449219 2780.011719 1913.460938 C 2780.011719 1932.390625 2764.671875 1947.800781 2745.730469 1947.800781 Z M 2849.839844 1233.28125 L 2157.5 1233.28125 L 2302 1700.988281 L 2693.890625 1700.988281 L 2806.929688 1374.898438 L 2835.011719 1374.539062 L 2712.039062 1749.660156 L 2330.949219 1749.660156 C 2303.800781 1749.660156 2279.03125 1760.820312 2261.109375 1778.75 L 2260.960938 1778.890625 C 2243.03125 1796.820312 2231.949219 1821.511719 2231.949219 1848.730469 C 2231.949219 1875.871094 2243.03125 1900.640625 2260.960938 1918.570312 L 2261.109375 1918.710938 C 2279.03125 1936.640625 2303.800781 1947.800781 2330.949219 1947.800781 C 2349.949219 1947.800781 2365.289062 1932.390625 2365.289062 1913.460938 C 2365.289062 1894.449219 2349.949219 1879.109375 2330.949219 1879.109375 C 2322.589844 1879.109375 2314.960938 1875.730469 2309.488281 1870.261719 C 2303.949219 1864.710938 2300.558594 1857.078125 2300.558594 1848.730469 C 2300.558594 1840.308594 2303.949219 1832.75 2309.488281 1827.199219 C 2314.960938 1821.730469 2322.589844 1818.351562 2330.949219 1818.351562 L 2736.878906 1818.351562 L 2736.878906 1818.269531 C 2751.351562 1818.269531 2764.738281 1809.058594 2769.488281 1794.589844 L 2907.371094 1373.75 L 2935.671875 1373.460938 L 2995.71875 1177.480469 L 3117.25 1177.480469 L 3134.460938 1116.710938 L 2952.078125 1116.710938 L 2891.320312 1311.898438 L 2824.789062 1311.898438 Z M 2609.800781 1872.710938 C 2639.820312 1872.710938 2664.160156 1897.761719 2664.160156 1928.71875 C 2664.160156 1959.609375 2639.820312 1984.738281 2609.800781 1984.738281 C 2579.78125 1984.738281 2555.441406 1959.609375 2555.441406 1928.71875 C 2555.441406 1897.761719 2579.78125 1872.710938 2609.800781 1872.710938 Z M 2435.269531 1872.710938 C 2465.300781 1872.710938 2489.628906 1897.761719 2489.628906 1928.71875 C 2489.628906 1959.609375 2465.300781 1984.738281 2435.269531 1984.738281 C 2405.25 1984.738281 2380.910156 1959.609375 2380.910156 1928.71875 C 2380.910156 1897.761719 2405.25 1872.710938 2435.269531 1872.710938 "/>
<path fill-rule="nonzero" fill="rgb(8.616638%, 7.835388%, 12.156677%)" fill-opacity="1" d="M 2493.589844 2177.769531 C 2474.578125 2177.769531 2463.929688 2186.769531 2461.769531 2204.769531 L 2520.589844 2204.769531 C 2520.589844 2196.488281 2518.21875 2189.859375 2513.460938 2185.039062 C 2508.710938 2180.210938 2502.089844 2177.769531 2493.589844 2177.769531 Z M 2491.140625 2139.25 C 2520.449219 2139.25 2542.839844 2146.089844 2558.320312 2159.839844 C 2573.800781 2173.589844 2581.5 2194.609375 2581.5 2222.910156 L 2581.5 2233.28125 L 2461.410156 2233.28125 C 2461.410156 2244.800781 2464 2253.441406 2469.179688 2259.339844 C 2474.300781 2265.171875 2482.429688 2268.128906 2493.589844 2268.128906 C 2503.671875 2268.128906 2511.089844 2266.039062 2515.839844 2261.789062 C 2520.589844 2257.539062 2522.96875 2251.851562 2522.96875 2244.800781 L 2581.5 2244.800781 C 2581.5 2264.171875 2574.160156 2279.359375 2559.398438 2290.300781 C 2544.640625 2301.171875 2523.109375 2306.648438 2494.820312 2306.648438 C 2465.078125 2306.648438 2442.039062 2299.730469 2425.621094 2285.910156 C 2409.28125 2272.011719 2401.070312 2251.058594 2401.070312 2222.910156 C 2401.070312 2195.480469 2409.058594 2174.601562 2425.050781 2160.488281 C 2441.03125 2146.300781 2463.058594 2139.25 2491.140625 2139.25 Z M 2316.46875 2139.25 C 2335.050781 2139.25 2349.019531 2144.359375 2358.300781 2154.730469 C 2367.589844 2165.019531 2372.269531 2179.851562 2372.269531 2199.289062 L 2372.269531 2303.050781 L 2311.941406 2303.050781 L 2311.941406 2206.570312 C 2311.941406 2199.730469 2310.140625 2194.179688 2306.609375 2190.011719 C 2303.078125 2185.898438 2298.039062 2183.820312 2291.558594 2183.820312 C 2284.148438 2183.820312 2278.03125 2186.261719 2273.421875 2191.089844 C 2268.738281 2195.980469 2266.429688 2201.890625 2266.429688 2209.011719 L 2266.429688 2303.050781 L 2206.101562 2303.050781 L 2206.101562 2142.851562 L 2255.488281 2142.851562 L 2259.449219 2167.109375 C 2265.710938 2158.621094 2273.921875 2151.851562 2284.148438 2146.808594 C 2294.371094 2141.769531 2305.171875 2139.25 2316.46875 2139.25 Z M 2107.171875 2303.050781 L 2107.171875 2142.851562 L 2167.578125 2142.851562 L 2167.578125 2303.050781 Z M 2107.171875 2124.058594 L 2107.171875 2083.160156 L 2167.578125 2083.160156 L 2167.578125 2124.058594 Z M 2006.230469 2303.050781 L 2006.230469 2083.160156 L 2066.558594 2083.160156 L 2066.558594 2303.050781 Z M 1912.199219 2139.25 C 1930.769531 2139.25 1944.738281 2144.359375 1954.03125 2154.730469 C 1963.320312 2165.019531 1968 2179.851562 1968 2199.289062 L 1968 2303.050781 L 1907.660156 2303.050781 L 1907.660156 2206.570312 C 1907.660156 2199.730469 1905.859375 2194.179688 1902.328125 2190.011719 C 1898.800781 2185.898438 1893.761719 2183.820312 1887.28125 2183.820312 C 1879.800781 2183.820312 1873.75 2186.261719 1869.140625 2191.089844 C 1864.460938 2195.980469 1862.160156 2201.890625 1862.160156 2209.011719 L 1862.160156 2303.050781 L 1801.75 2303.050781 L 1801.75 2142.851562 L 1851.210938 2142.851562 L 1855.171875 2167.109375 C 1861.441406 2158.621094 1869.640625 2151.851562 1879.871094 2146.808594 C 1890.089844 2141.769531 1900.820312 2139.25 1912.199219 2139.25 Z M 1657.101562 2140.761719 C 1642.769531 2140.761719 1631.828125 2145.078125 1624.339844 2153.789062 C 1616.851562 2162.5 1613.109375 2174.238281 1613.109375 2189 L 1613.109375 2208.371094 C 1613.109375 2223.128906 1616.851562 2234.859375 1624.339844 2243.570312 C 1631.828125 2252.289062 1642.769531 2256.609375 1657.101562 2256.609375 C 1671.5 2256.609375 1682.449219 2252.289062 1690.011719 2243.570312 C 1697.640625 2234.859375 1701.378906 2223.128906 1701.378906 2208.371094 L 1701.378906 2189 C 1701.378906 2174.238281 1697.640625 2162.5 1690.011719 2153.789062 C 1682.449219 2145.078125 1671.5 2140.761719 1657.101562 2140.761719 Z M 1657.101562 2090.71875 C 1693.101562 2090.71875 1720.890625 2099.941406 1740.550781 2118.300781 C 1760.128906 2136.730469 1769.921875 2163.511719 1769.921875 2198.648438 C 1769.921875 2233.851562 1760.128906 2260.640625 1740.550781 2279.070312 C 1720.890625 2297.429688 1693.101562 2306.648438 1657.101562 2306.648438 C 1621.101562 2306.648438 1593.378906 2297.5 1573.871094 2279.210938 C 1554.359375 2260.929688 1544.570312 2234.070312 1544.570312 2198.648438 C 1544.570312 2163.289062 1554.359375 2136.441406 1573.871094 2118.148438 C 1593.378906 2099.859375 1621.101562 2090.71875 1657.101562 2090.71875 "/>
<g clip-path="url(#clip-3)">
<g clip-path="url(#clip-4)">
<g clip-path="url(#clip-5)">
<path fill-rule="nonzero" fill="url(#linear-pattern-1)" d="M 3455.429688 2360.789062 L 2653.578125 2360.789062 L 2653.578125 2081.140625 L 3455.429688 2081.140625 Z M 3455.429688 2360.789062 "/>
</g>
</g>
</g>
<path fill-rule="nonzero" fill="rgb(8.616638%, 7.835388%, 12.156677%)" fill-opacity="1" d="M 2827.449219 2385.558594 C 2820.328125 2385.558594 2816.371094 2388.941406 2815.5 2395.710938 L 2837.609375 2395.710938 C 2837.609375 2392.539062 2836.671875 2390.089844 2834.941406 2388.289062 C 2833.140625 2386.488281 2830.621094 2385.558594 2827.449219 2385.558594 Z M 2826.519531 2371.078125 C 2837.53125 2371.078125 2845.960938 2373.679688 2851.71875 2378.859375 C 2857.550781 2383.96875 2860.429688 2391.890625 2860.429688 2402.480469 L 2860.429688 2406.371094 L 2815.429688 2406.371094 C 2815.429688 2410.691406 2816.371094 2413.921875 2818.308594 2416.160156 C 2820.25 2418.390625 2823.28125 2419.46875 2827.449219 2419.46875 C 2831.269531 2419.46875 2834 2418.679688 2835.808594 2417.089844 C 2837.609375 2415.441406 2838.46875 2413.351562 2838.46875 2410.691406 L 2860.429688 2410.691406 C 2860.429688 2417.960938 2857.691406 2423.648438 2852.148438 2427.75 C 2846.609375 2431.851562 2838.539062 2433.871094 2827.890625 2433.871094 C 2816.800781 2433.871094 2808.160156 2431.28125 2801.96875 2426.089844 C 2795.851562 2420.910156 2792.75 2413.058594 2792.75 2402.480469 C 2792.75 2392.179688 2795.769531 2384.410156 2801.75 2379.078125 C 2807.730469 2373.75 2816.011719 2371.078125 2826.519531 2371.078125 Z M 2779.71875 2371.011719 C 2781.449219 2371.011719 2782.960938 2371.230469 2784.328125 2371.660156 C 2785.691406 2372.019531 2786.410156 2372.308594 2786.410156 2372.378906 L 2786.410156 2391.390625 L 2779.140625 2391.390625 C 2774.390625 2391.390625 2771.011719 2392.539062 2768.921875 2394.988281 C 2766.828125 2397.441406 2765.820312 2401.039062 2765.820312 2405.789062 L 2765.820312 2432.5 L 2743.210938 2432.5 L 2743.210938 2372.449219 L 2761.71875 2372.449219 L 2763.230469 2381.601562 C 2764.601562 2378.070312 2766.761719 2375.480469 2769.710938 2373.679688 C 2772.660156 2371.878906 2775.96875 2371.011719 2779.71875 2371.011719 Z M 2699.289062 2385.558594 C 2692.171875 2385.558594 2688.210938 2388.941406 2687.339844 2395.710938 L 2709.371094 2395.710938 C 2709.371094 2392.539062 2708.511719 2390.089844 2706.710938 2388.289062 C 2704.980469 2386.488281 2702.460938 2385.558594 2699.289062 2385.558594 Z M 2698.359375 2371.078125 C 2709.371094 2371.078125 2717.800781 2373.679688 2723.558594 2378.859375 C 2729.390625 2383.96875 2732.269531 2391.890625 2732.269531 2402.480469 L 2732.269531 2406.371094 L 2687.199219 2406.371094 C 2687.199219 2410.691406 2688.210938 2413.921875 2690.148438 2416.160156 C 2692.089844 2418.390625 2695.121094 2419.46875 2699.289062 2419.46875 C 2703.109375 2419.46875 2705.851562 2418.679688 2707.648438 2417.089844 C 2709.449219 2415.441406 2710.308594 2413.351562 2710.308594 2410.691406 L 2732.269531 2410.691406 C 2732.269531 2417.960938 2729.53125 2423.648438 2723.988281 2427.75 C 2718.449219 2431.851562 2710.378906 2433.871094 2699.730469 2433.871094 C 2688.570312 2433.871094 2679.929688 2431.28125 2673.808594 2426.089844 C 2667.691406 2420.910156 2664.589844 2413.058594 2664.589844 2402.480469 C 2664.589844 2392.179688 2667.609375 2384.410156 2673.589844 2379.078125 C 2679.570312 2373.75 2687.851562 2371.078125 2698.359375 2371.078125 Z M 2614.121094 2378.71875 C 2616.5 2376.339844 2619.378906 2374.46875 2622.621094 2373.101562 C 2625.929688 2371.808594 2629.308594 2371.078125 2632.839844 2371.078125 C 2639.820312 2371.078125 2645.078125 2373.03125 2648.53125 2376.921875 C 2652.058594 2380.808594 2653.789062 2386.351562 2653.789062 2393.621094 L 2653.789062 2432.5 L 2631.179688 2432.5 L 2631.179688 2396.359375 C 2631.179688 2393.769531 2630.460938 2391.75 2629.171875 2390.171875 C 2627.871094 2388.578125 2626 2387.859375 2623.550781 2387.859375 C 2620.738281 2387.859375 2618.441406 2388.730469 2616.710938 2390.601562 C 2614.980469 2392.398438 2614.121094 2394.628906 2614.121094 2397.289062 L 2614.121094 2432.5 L 2591.441406 2432.5 L 2591.441406 2350.058594 L 2614.121094 2350.058594 Z M 2519.148438 2371.078125 C 2526.140625 2371.078125 2531.320312 2373.03125 2534.851562 2376.921875 C 2538.300781 2380.808594 2540.03125 2386.351562 2540.03125 2393.621094 L 2540.03125 2432.5 L 2517.421875 2432.5 L 2517.421875 2396.359375 C 2517.421875 2393.769531 2516.78125 2391.75 2515.410156 2390.171875 C 2514.109375 2388.578125 2512.238281 2387.859375 2509.789062 2387.859375 C 2506.980469 2387.859375 2504.75 2388.730469 2502.949219 2390.601562 C 2501.21875 2392.398438 2500.359375 2394.628906 2500.359375 2397.289062 L 2500.359375 2432.5 L 2477.75 2432.5 L 2477.75 2372.449219 L 2496.261719 2372.449219 L 2497.769531 2381.601562 C 2500.070312 2378.429688 2503.171875 2375.839844 2507.058594 2373.96875 C 2510.871094 2372.089844 2514.898438 2371.078125 2519.148438 2371.078125 Z M 2439.949219 2406.371094 C 2433.539062 2406.371094 2428.789062 2407.078125 2425.699219 2408.449219 C 2422.601562 2409.890625 2421.089844 2411.761719 2421.089844 2414.140625 C 2421.089844 2417.890625 2423.679688 2419.828125 2428.859375 2419.828125 C 2431.820312 2419.828125 2434.410156 2418.960938 2436.640625 2417.378906 C 2438.871094 2415.800781 2439.949219 2413.851562 2439.949219 2411.480469 Z M 2431.53125 2371.078125 C 2440.738281 2371.078125 2448.230469 2372.671875 2453.988281 2375.691406 C 2459.75 2378.789062 2462.628906 2383.761719 2462.628906 2390.671875 L 2462.628906 2414.140625 C 2462.628906 2415.371094 2462.921875 2416.449219 2463.5 2417.308594 C 2464.140625 2418.101562 2465.011719 2418.53125 2466.230469 2418.53125 L 2470.339844 2418.53125 L 2470.339844 2431.640625 C 2470.121094 2431.78125 2469.539062 2432 2468.609375 2432.359375 C 2467.601562 2432.71875 2466.300781 2433.078125 2464.578125 2433.371094 C 2462.78125 2433.730469 2460.761719 2433.871094 2458.53125 2433.871094 C 2454.140625 2433.871094 2450.460938 2433.21875 2447.660156 2431.921875 C 2444.78125 2430.558594 2442.828125 2428.761719 2441.820312 2426.378906 C 2438.941406 2428.679688 2435.699219 2430.488281 2432.101562 2431.851562 C 2428.578125 2433.21875 2424.398438 2433.871094 2419.648438 2433.871094 C 2405.539062 2433.871094 2398.480469 2428.25 2398.480469 2417.089844 C 2398.480469 2411.261719 2400.058594 2406.800781 2403.160156 2403.699219 C 2406.328125 2400.609375 2410.859375 2398.519531 2416.769531 2397.371094 C 2422.671875 2396.289062 2430.449219 2395.710938 2439.949219 2395.710938 L 2439.949219 2392.761719 C 2439.949219 2390.378906 2439.160156 2388.578125 2437.5 2387.359375 C 2435.921875 2386.210938 2433.828125 2385.558594 2431.238281 2385.558594 C 2428.859375 2385.558594 2426.851562 2385.988281 2425.121094 2386.78125 C 2423.460938 2387.648438 2422.601562 2388.941406 2422.601562 2390.808594 L 2422.601562 2391.25 L 2400.28125 2391.25 C 2400.210938 2390.890625 2400.140625 2390.308594 2400.140625 2389.660156 C 2400.140625 2383.96875 2402.871094 2379.441406 2408.269531 2376.128906 C 2413.738281 2372.808594 2421.449219 2371.078125 2431.53125 2371.078125 Z M 2347.148438 2432.5 C 2345.421875 2432.5 2343.980469 2433 2342.898438 2433.941406 C 2341.820312 2434.878906 2341.238281 2436.25 2341.238281 2437.96875 C 2341.238281 2439.769531 2341.820312 2441.140625 2342.96875 2442.21875 C 2344.121094 2443.230469 2345.488281 2443.800781 2347.148438 2443.800781 L 2364.929688 2443.800781 C 2366.578125 2443.800781 2368.019531 2443.300781 2369.179688 2442.289062 C 2370.328125 2441.210938 2370.980469 2439.839844 2370.980469 2438.121094 C 2370.980469 2436.390625 2370.398438 2435.019531 2369.25 2434.011719 C 2368.101562 2433 2366.660156 2432.5 2364.929688 2432.5 Z M 2355.929688 2382.96875 C 2353.410156 2382.96875 2351.390625 2383.609375 2349.808594 2384.910156 C 2348.21875 2386.210938 2347.429688 2388 2347.429688 2390.449219 C 2347.429688 2392.96875 2348.148438 2394.851562 2349.589844 2396.070312 C 2351.101562 2397.371094 2353.191406 2397.941406 2355.929688 2397.941406 C 2358.671875 2397.941406 2360.828125 2397.371094 2362.339844 2396.070312 C 2363.921875 2394.851562 2364.710938 2392.96875 2364.710938 2390.449219 C 2364.710938 2387.929688 2363.921875 2386.058594 2362.339844 2384.839844 C 2360.828125 2383.539062 2358.671875 2382.96875 2355.929688 2382.96875 Z M 2393.578125 2361.21875 C 2393.578125 2365.828125 2392.429688 2369.429688 2390.128906 2371.949219 C 2387.828125 2374.398438 2384.300781 2376.269531 2379.691406 2377.488281 C 2381.921875 2379.148438 2383.648438 2381.089844 2384.871094 2383.328125 C 2386.101562 2385.558594 2386.75 2387.929688 2386.75 2390.449219 C 2386.75 2396.789062 2384.371094 2401.609375 2379.539062 2404.921875 C 2374.71875 2408.171875 2368.671875 2409.820312 2361.46875 2409.820312 L 2352.828125 2409.820312 C 2348.078125 2409.820312 2345.710938 2410.898438 2345.710938 2413.058594 C 2345.710938 2414.140625 2346.210938 2415 2347.289062 2415.648438 C 2348.371094 2416.300781 2350.171875 2416.589844 2352.828125 2416.589844 L 2373.351562 2416.589844 C 2379.980469 2416.589844 2385.019531 2418.390625 2388.46875 2421.839844 C 2391.859375 2425.300781 2393.578125 2429.980469 2393.578125 2435.808594 C 2393.578125 2440.128906 2392.429688 2443.878906 2390.128906 2446.96875 C 2387.898438 2450.070312 2384.800781 2452.441406 2380.980469 2454.03125 C 2377.101562 2455.609375 2372.851562 2456.410156 2368.308594 2456.410156 L 2334.910156 2456.410156 C 2332.171875 2456.410156 2329.648438 2455.761719 2327.339844 2454.460938 C 2325.039062 2453.171875 2323.171875 2451.441406 2321.800781 2449.210938 C 2320.429688 2446.96875 2319.789062 2444.449219 2319.789062 2441.71875 C 2319.789062 2438.761719 2320.648438 2436.101562 2322.519531 2433.730469 C 2324.320312 2431.351562 2326.550781 2429.550781 2329.289062 2428.328125 C 2327.488281 2427.03125 2326.050781 2425.449219 2324.96875 2423.648438 C 2323.960938 2421.839844 2323.390625 2419.898438 2323.390625 2417.738281 C 2323.390625 2414.789062 2324.539062 2412.128906 2326.699219 2409.75 C 2328.929688 2407.371094 2331.589844 2405.71875 2334.910156 2404.921875 C 2331.949219 2402.980469 2329.578125 2400.820312 2327.851562 2398.371094 C 2326.121094 2395.921875 2325.261719 2393.261719 2325.261719 2390.601562 C 2325.261719 2383.609375 2328.070312 2378.570312 2333.679688 2375.621094 C 2339.371094 2372.601562 2346.859375 2371.078125 2356.148438 2371.078125 C 2360.25 2371.078125 2363.558594 2371.371094 2366.078125 2371.808594 C 2369.75 2369.429688 2372.199219 2367.339844 2373.28125 2365.398438 C 2374.359375 2363.449219 2374.941406 2362.089844 2374.941406 2361.21875 Z M 2281.191406 2386.488281 C 2273.78125 2386.488281 2270.03125 2390.738281 2270.03125 2399.308594 L 2270.03125 2405.789062 C 2270.03125 2414.289062 2273.78125 2418.53125 2281.191406 2418.53125 C 2288.679688 2418.53125 2292.5 2414.289062 2292.5 2405.789062 L 2292.5 2399.308594 C 2292.5 2390.738281 2288.679688 2386.488281 2281.191406 2386.488281 Z M 2281.191406 2371.078125 C 2291.78125 2371.078125 2300.058594 2373.820312 2306.03125 2379.148438 C 2312.078125 2384.480469 2315.109375 2392.25 2315.109375 2402.480469 C 2315.109375 2412.769531 2312.078125 2420.550781 2306.03125 2425.878906 C 2300.058594 2431.210938 2291.78125 2433.871094 2281.191406 2433.871094 C 2270.679688 2433.871094 2262.398438 2431.28125 2256.429688 2425.949219 C 2250.449219 2420.621094 2247.429688 2412.839844 2247.429688 2402.480469 C 2247.429688 2392.179688 2250.449219 2384.410156 2256.429688 2379.078125 C 2262.398438 2373.75 2270.679688 2371.078125 2281.191406 2371.078125 Z M 2213.078125 2432.5 L 2213.078125 2350.058594 L 2235.691406 2350.058594 L 2235.691406 2432.5 Z M 2171.320312 2371.078125 C 2179.390625 2371.078125 2186.148438 2372.671875 2191.769531 2375.839844 C 2197.308594 2379 2200.121094 2383.828125 2200.121094 2390.449219 L 2179.101562 2390.449219 C 2179.101562 2388.21875 2178.089844 2386.710938 2176.148438 2385.769531 C 2174.78125 2385.050781 2173.050781 2384.621094 2171.03125 2384.621094 C 2165.558594 2384.621094 2162.828125 2385.921875 2162.828125 2388.511719 C 2162.828125 2389.949219 2163.761719 2390.960938 2165.628906 2391.609375 C 2167.578125 2392.179688 2170.671875 2392.828125 2174.988281 2393.550781 C 2180.320312 2394.269531 2184.710938 2395.210938 2188.308594 2396.210938 C 2191.839844 2397.21875 2194.941406 2399.019531 2197.601562 2401.691406 C 2200.269531 2404.28125 2201.558594 2407.949219 2201.558594 2412.628906 C 2201.558594 2420.261719 2198.75 2425.730469 2192.988281 2428.96875 C 2187.308594 2432.289062 2179.820312 2433.871094 2170.53125 2433.871094 C 2165.199219 2433.871094 2160.230469 2433.148438 2155.550781 2431.710938 C 2150.800781 2430.199219 2146.988281 2427.890625 2144.03125 2424.800781 C 2141.078125 2421.699219 2139.640625 2417.738281 2139.640625 2412.988281 L 2160.671875 2412.988281 L 2160.671875 2413.421875 C 2160.738281 2416.011719 2161.820312 2417.808594 2163.910156 2418.820312 C 2165.988281 2419.828125 2168.230469 2420.328125 2170.53125 2420.328125 C 2176.871094 2420.328125 2179.960938 2418.890625 2179.960938 2415.941406 C 2179.960938 2414.429688 2179.03125 2413.28125 2177.011719 2412.628906 C 2175.070312 2411.980469 2171.828125 2411.261719 2167.359375 2410.46875 C 2161.960938 2409.53125 2157.570312 2408.601562 2154.109375 2407.519531 C 2150.660156 2406.441406 2147.628906 2404.640625 2145.039062 2402.121094 C 2142.519531 2399.601562 2141.230469 2396 2141.230469 2391.460938 C 2141.230469 2384.121094 2143.960938 2378.859375 2149.578125 2375.769531 C 2155.121094 2372.671875 2162.390625 2371.078125 2171.320312 2371.078125 "/>
</svg>
